<?xml version="1.0" standalone="no"?>
<!DOCTYPE svg PUBLIC "-//W3C//DTD SVG 20010904//EN"
 "http://www.w3.org/TR/2001/REC-SVG-20010904/DTD/svg10.dtd">
<svg version="1.0" xmlns="http://www.w3.org/2000/svg"
 width="786.000000pt" height="786.000000pt" viewBox="0 0 786.000000 786.000000"
 preserveAspectRatio="xMidYMid meet">
<metadata>
Created by potrace 1.14, written by Peter Selinger 2001-2017
</metadata>
<g transform="translate(0.000000,786.000000) scale(0.100000,-0.100000)"
fill="#000000" stroke="none">
<path d="M3916 7731 c-4 -6 -3 -11 3 -11 6 0 8 -7 4 -16 -5 -13 -7 -13 -14 -2
-5 7 -22 13 -38 13 -24 0 -27 -3 -18 -14 10 -12 8 -12 -12 -1 -21 11 -23 10
-18 -4 3 -8 2 -18 -4 -21 -5 -4 -9 -3 -8 2 4 20 -3 31 -26 41 -14 6 -24 8 -23
4 1 -4 -3 -17 -10 -29 -12 -22 -42 -22 -42 -1 0 7 5 6 14 -1 11 -9 15 -7 19 9
4 16 2 19 -7 11 -7 -6 -16 -8 -20 -4 -4 4 -11 1 -16 -7 -6 -8 -10 -10 -10 -4
0 12 -67 13 -86 1 -6 -3 -21 -4 -33 -2 -16 3 -21 0 -18 -9 6 -16 -23 -17 -42
-2 -12 9 -13 8 -7 -3 7 -10 3 -12 -13 -6 -16 5 -21 2 -21 -12 0 -15 -2 -15 -9
-4 -5 8 -15 16 -23 17 -7 1 -22 5 -33 9 -12 4 -15 4 -8 -2 8 -6 9 -14 3 -23
-7 -10 -10 -11 -10 -2 0 6 -5 12 -11 12 -5 0 -7 -4 -4 -10 4 -6 -1 -7 -11 -3
-12 4 -15 3 -10 -5 5 -8 2 -10 -8 -6 -9 3 -16 10 -16 15 0 5 -4 9 -10 9 -5 0
-7 -7 -3 -16 5 -14 3 -15 -18 -4 -22 12 -23 12 -11 -3 11 -13 10 -15 -9 -10
-17 5 -20 3 -14 -7 5 -9 4 -11 -4 -6 -9 6 -9 11 0 22 6 8 9 17 5 21 -3 3 -6 1
-6 -5 0 -7 -7 -12 -16 -12 -8 0 -12 -5 -9 -11 9 -13 -27 -8 -37 6 -7 9 -13
-17 -9 -38 1 -5 -3 -6 -9 -2 -6 3 -8 10 -5 15 3 4 -2 11 -11 14 -12 5 -14 1
-9 -17 4 -15 4 -18 -3 -8 -11 16 -36 5 -26 -11 5 -7 2 -8 -7 -2 -8 4 -23 10
-34 11 -10 2 -23 9 -27 16 -6 9 -8 9 -8 -1 0 -7 -5 -10 -12 -6 -7 4 -8 3 -4
-5 4 -6 11 -9 16 -6 5 3 11 1 15 -4 3 -6 -6 -8 -21 -5 -14 3 -23 1 -20 -4 3
-5 -6 -7 -19 -4 -14 2 -22 9 -18 15 3 6 1 7 -6 3 -7 -5 -9 -17 -5 -29 5 -18 3
-17 -16 6 -21 26 -24 27 -39 12 -14 -14 -14 -17 -1 -25 8 -5 17 -7 19 -4 3 3
-1 9 -8 13 -9 6 -10 11 -2 15 13 8 26 -18 16 -34 -4 -6 -13 -7 -23 -1 -9 4
-24 6 -32 3 -13 -5 -13 -3 -1 12 12 14 12 16 -3 10 -19 -7 -20 -16 -5 -31 7
-7 3 -9 -17 -5 -23 4 -26 2 -21 -12 4 -10 3 -15 -3 -11 -15 9 -12 26 8 42 15
13 15 13 -5 3 -13 -6 -23 -15 -23 -21 0 -6 -5 -7 -10 -4 -6 4 -7 12 -3 18 4 7
0 6 -10 -2 -9 -7 -17 -19 -17 -25 0 -8 2 -8 8 0 5 8 11 7 22 -4 13 -14 12 -15
-3 -9 -10 4 -17 2 -17 -6 0 -8 -3 -8 -9 2 -7 11 -11 10 -20 -5 -6 -11 -11 -14
-11 -7 0 6 5 15 10 18 6 3 10 11 10 16 0 6 -7 3 -16 -5 -8 -9 -22 -16 -30 -16
-8 0 -14 -4 -14 -9 0 -15 -33 -22 -42 -9 -6 10 -8 10 -8 1 0 -7 -9 -13 -21
-13 -11 0 -18 -4 -15 -8 3 -5 -1 -9 -9 -9 -18 0 -19 9 -2 27 10 12 9 12 -5 1
-10 -7 -18 -22 -18 -32 0 -11 -5 -19 -11 -19 -5 0 -7 5 -3 11 4 7 1 10 -7 7
-8 -3 -13 -11 -11 -17 1 -7 -2 -10 -7 -7 -5 4 -12 0 -14 -6 -4 -10 -6 -10 -6
-1 -1 7 -8 10 -16 7 -8 -4 -12 -11 -8 -18 4 -6 -1 -4 -11 4 -21 16 -49 23 -40
9 3 -5 10 -6 16 -3 7 4 8 2 4 -5 -4 -6 -18 -9 -31 -7 -17 3 -25 -1 -30 -17 -4
-12 -7 -26 -6 -30 1 -5 -3 -6 -9 -2 -7 5 -8 11 -1 19 7 8 6 17 -1 26 -8 12 -9
12 -4 -2 3 -10 2 -18 -3 -18 -4 0 -21 -11 -36 -24 -16 -14 -32 -23 -37 -20 -4
3 -8 -3 -8 -13 0 -15 -2 -16 -10 -3 -5 8 -10 11 -10 5 0 -5 -7 -1 -15 9 -21
28 -19 6 2 -24 16 -24 16 -24 -1 -10 -16 13 -20 12 -32 -5 -8 -10 -14 -14 -14
-9 0 6 5 15 12 22 9 9 9 15 -1 25 -11 10 -13 9 -7 -1 4 -6 0 -19 -8 -28 -9 -9
-13 -20 -10 -26 4 -7 2 -8 -5 -4 -6 4 -9 11 -7 15 3 4 -1 8 -9 8 -7 0 -12 -8
-10 -18 2 -10 -1 -22 -7 -25 -6 -4 -8 -3 -5 3 4 6 -2 13 -13 16 -17 4 -18 2
-9 -15 8 -16 8 -19 -1 -13 -7 4 -17 1 -22 -6 -6 -10 -7 -6 -3 11 5 19 4 22 -4
10 -6 -8 -11 -11 -11 -6 0 5 -7 3 -15 -4 -9 -7 -13 -23 -11 -36 3 -13 0 -24
-6 -24 -5 0 -8 6 -5 14 3 8 0 19 -7 25 -10 9 -13 6 -11 -13 2 -19 -1 -23 -13
-19 -11 5 -13 3 -7 -7 5 -8 4 -11 -3 -6 -5 3 -13 0 -15 -6 -4 -9 -6 -10 -6 -1
-1 6 9 19 21 27 12 9 17 16 11 16 -6 0 -19 -8 -29 -17 -10 -10 -26 -18 -36
-18 -10 0 -18 -3 -18 -7 0 -5 0 -13 0 -20 0 -6 6 -4 13 7 11 14 16 15 22 5 5
-8 4 -11 -2 -7 -6 4 -14 0 -17 -9 -4 -9 -11 -12 -18 -7 -22 13 -36 12 -53 -7
-10 -11 -14 -24 -9 -32 4 -7 4 -10 -1 -6 -4 4 -15 2 -24 -5 -14 -11 -15 -10
-1 8 14 19 14 19 -4 5 -11 -8 -22 -14 -25 -14 -14 3 -30 -9 -25 -18 3 -5 12
-1 20 9 7 10 13 14 13 8 0 -13 -24 -45 -33 -45 -4 0 -4 5 -1 10 9 15 -4 12
-20 -4 -8 -7 -11 -17 -7 -22 4 -5 -1 -2 -10 5 -10 7 -18 10 -18 5 0 -5 -5 -2
-11 6 -9 13 -10 13 -8 0 3 -27 -1 -40 -11 -40 -5 0 -7 8 -4 18 5 14 4 14 -4 2
-6 -8 -8 -18 -5 -24 4 -5 -1 -7 -10 -3 -11 4 -14 2 -11 -7 3 -8 14 -12 27 -8
12 3 20 2 17 -1 -6 -6 -55 -18 -80 -19 -8 0 -20 -5 -27 -10 -7 -5 -17 -7 -23
-3 -6 4 -9 1 -8 -7 2 -7 -3 -12 -10 -10 -8 1 -11 -2 -8 -7 3 -5 3 -16 0 -25
-6 -15 -8 -15 -19 1 -12 16 -13 15 -8 -10 6 -28 -5 -35 -24 -16 -6 6 -16 8
-22 5 -11 -7 -3 -37 13 -49 6 -4 -1 -5 -15 -2 -19 5 -28 2 -33 -10 -3 -9 -10
-13 -16 -10 -5 3 -10 1 -10 -4 0 -22 -2 -26 -17 -43 -8 -9 -12 -22 -8 -27 3
-6 4 -11 1 -11 -3 0 -10 10 -17 21 -9 17 -8 20 3 14 10 -6 11 -5 1 5 -17 18
-24 9 -25 -31 -1 -19 -3 -28 -6 -21 -3 10 -7 10 -20 0 -13 -10 -13 -8 1 9 15
17 16 23 5 29 -7 4 -10 4 -6 -1 8 -8 -28 -45 -44 -45 -4 0 -8 -5 -8 -11 0 -8
4 -8 14 1 11 8 20 9 33 1 17 -9 17 -10 -2 -10 -33 0 -76 -9 -83 -17 -4 -4 1
-4 11 -1 9 4 17 2 17 -3 0 -5 8 -7 18 -4 13 5 14 4 3 -4 -8 -6 -21 -8 -29 -4
-11 4 -13 2 -7 -9 8 -12 6 -12 -8 0 -14 11 -18 11 -23 -3 -3 -9 -10 -14 -14
-11 -4 3 -6 -9 -5 -25 1 -16 -1 -27 -6 -24 -5 3 -13 -5 -18 -18 -6 -13 -10
-17 -10 -10 -1 6 -6 12 -12 12 -6 0 -8 -7 -5 -16 5 -14 4 -15 -8 -5 -13 11
-15 9 -11 -8 2 -11 -1 -24 -7 -27 -7 -4 -8 -2 -4 4 4 7 2 12 -4 12 -6 0 -8 5
-4 12 4 7 3 8 -4 4 -7 -4 -8 -15 -2 -30 8 -22 6 -24 -15 -21 -29 3 -63 -29
-44 -41 8 -5 10 -3 4 6 -5 9 -4 11 4 6 6 -4 9 -12 5 -17 -3 -5 -10 -6 -16 -3
-8 5 -9 1 -5 -10 4 -10 3 -15 -3 -11 -10 6 -13 -5 -11 -35 0 -10 -1 -11 -5 -2
-3 6 -11 9 -17 5 -7 -4 -6 1 2 10 17 21 8 22 -13 1 -17 -16 -22 -39 -8 -30 5
3 9 -1 9 -9 0 -8 -4 -12 -8 -9 -4 2 -10 0 -14 -6 -3 -6 -17 -8 -31 -6 -28 5
-30 3 -7 -15 14 -12 16 -12 8 0 -5 10 -4 12 4 7 6 -4 9 -12 5 -17 -3 -5 -9 -7
-14 -4 -14 9 -39 -6 -33 -21 3 -8 9 -11 14 -8 5 3 6 10 3 16 -4 7 -2 8 5 4 17
-11 -5 -36 -31 -36 -10 0 -17 -4 -14 -9 3 -5 -1 -11 -9 -15 -22 -8 -18 -25 5
-21 12 2 18 0 15 -6 -4 -5 -10 -7 -15 -4 -5 3 -12 1 -15 -5 -5 -8 -11 -8 -20
0 -11 10 -13 8 -10 -9 4 -23 -20 -41 -45 -34 -8 2 -5 -2 6 -9 17 -10 19 -16
10 -24 -6 -6 -16 -9 -22 -7 -6 2 -17 -4 -25 -13 -16 -19 -23 -58 -9 -49 5 3
10 2 10 -3 0 -6 -7 -13 -16 -16 -8 -3 -12 -2 -9 3 3 5 0 13 -6 17 -7 4 -10 3
-7 -2 9 -15 -11 -56 -23 -48 -8 5 -8 1 0 -14 16 -30 13 -39 -5 -16 -8 10 -12
13 -8 5 5 -11 3 -13 -10 -8 -9 4 -15 3 -11 -2 3 -5 -7 -19 -22 -32 -16 -12
-20 -19 -11 -16 21 8 31 -18 13 -33 -8 -7 -13 -16 -10 -20 3 -5 -4 -11 -15
-15 -11 -3 -20 -11 -20 -16 0 -6 6 -7 13 -3 9 5 9 3 -1 -7 -11 -12 -14 -12
-23 1 -8 11 -9 4 -7 -26 3 -34 0 -40 -16 -42 -14 -1 -16 2 -7 11 6 6 11 15 11
19 0 4 -8 0 -18 -9 -17 -17 -17 -19 2 -37 l21 -18 -22 6 c-25 8 -53 -27 -31
-40 6 -4 8 -3 5 2 -3 6 -2 16 3 24 7 11 9 8 7 -10 -1 -14 -8 -32 -16 -40 -13
-13 -14 -13 -8 3 9 24 -5 21 -21 -4 -8 -12 -9 -18 -3 -14 6 3 11 1 11 -5 0 -6
5 -8 12 -4 7 4 8 3 4 -5 -4 -6 -10 -9 -14 -7 -4 2 -13 -2 -19 -10 -8 -8 -9
-15 -3 -19 6 -3 10 -12 10 -18 0 -7 -4 -6 -10 3 -7 12 -12 12 -21 3 -10 -10
-9 -14 4 -19 14 -5 14 -8 -3 -27 -18 -18 -24 -37 -22 -58 1 -4 -7 -14 -18 -24
-10 -9 -16 -24 -14 -33 3 -10 -2 -6 -11 8 l-16 25 7 -25 c9 -35 9 -32 0 -57
-4 -13 -12 -23 -17 -23 -5 0 -3 11 6 23 13 20 13 24 1 24 -8 0 -12 -6 -8 -15
4 -11 1 -13 -8 -7 -9 5 -11 4 -6 -3 4 -7 1 -12 -6 -12 -9 0 -9 -3 2 -10 13 -9
13 -10 0 -10 -13 0 -13 -1 0 -10 13 -8 13 -11 1 -22 -12 -11 -12 -10 -6 2 8
13 7 13 -8 1 -18 -15 -23 -26 -7 -16 5 3 10 2 10 -4 0 -5 -9 -13 -20 -16 -11
-3 -20 -11 -20 -16 0 -13 18 -11 23 4 2 7 8 8 13 3 5 -5 4 -11 -4 -13 -10 -4
-10 -8 -1 -20 10 -11 10 -14 -1 -11 -9 2 -14 -6 -15 -22 -1 -15 -6 -24 -14
-22 -8 2 -11 -3 -8 -12 3 -8 -1 -20 -9 -26 -22 -19 -17 -32 9 -20 21 11 21 10
3 -4 -10 -9 -23 -13 -29 -9 -6 4 -8 -4 -5 -21 4 -20 2 -24 -8 -16 -10 9 -11 6
-7 -9 3 -12 10 -18 16 -14 6 3 7 1 3 -5 -4 -6 -14 -8 -22 -5 -14 5 -15 3 -4
-17 7 -12 7 -20 2 -16 -13 8 -10 -42 3 -64 7 -13 6 -13 -7 -2 -9 7 -15 22 -13
32 3 13 -1 17 -12 13 -8 -3 -11 -9 -6 -12 11 -7 11 -27 0 -37 -13 -13 -7 -27
7 -15 10 8 16 9 21 1 4 -6 1 -9 -7 -8 -7 2 -12 -3 -10 -10 1 -8 -2 -11 -7 -8
-5 3 -12 -1 -15 -10 -9 -23 -8 -26 7 -18 9 6 9 5 0 -7 -6 -8 -12 -18 -13 -24
-1 -5 -4 -12 -7 -15 -4 -3 -3 1 2 9 5 9 4 12 -2 8 -7 -5 -8 -20 -3 -42 7 -29
6 -34 -5 -25 -9 8 -15 8 -20 0 -3 -6 -11 -7 -17 -4 -7 4 -8 2 -4 -5 4 -6 11
-9 15 -7 4 3 13 1 21 -5 10 -6 11 -9 3 -9 -7 0 -13 -5 -13 -11 0 -5 4 -8 9 -4
5 3 13 1 16 -5 4 -6 3 -10 -2 -9 -4 1 -17 1 -28 0 -14 -1 -16 -4 -7 -10 18
-11 13 -81 -5 -74 -9 3 -10 10 -5 17 12 14 11 47 0 40 -5 -3 -6 -10 -3 -15 4
-5 3 -15 -2 -21 -11 -19 -13 -39 -2 -32 5 3 9 -4 9 -15 0 -12 -5 -21 -11 -21
-6 0 -3 -7 5 -16 21 -20 20 -27 -1 -15 -18 9 -21 -4 -24 -111 0 -9 -6 -16 -12
-14 -7 1 -9 1 -4 -2 4 -2 12 -13 19 -25 10 -19 9 -20 -4 -10 -13 11 -14 7 -8
-32 5 -35 4 -45 -7 -45 -8 0 -12 -4 -8 -10 3 -5 11 -8 18 -6 7 1 8 1 4 -2 -4
-2 -2 -11 5 -20 10 -12 10 -14 0 -8 -16 9 -16 -6 1 -24 10 -12 9 -12 -6 0 -10
7 -16 19 -13 26 3 7 -2 15 -9 18 -11 4 -12 0 -4 -22 6 -14 15 -33 22 -42 6 -8
0 -6 -13 5 -14 11 -22 16 -18 11 4 -5 3 -15 -4 -23 -8 -11 -7 -12 5 -8 8 4 18
2 22 -4 3 -6 0 -11 -8 -11 -8 0 -18 -7 -21 -16 -3 -8 -2 -12 4 -9 6 3 10 1 10
-5 0 -6 5 -8 11 -4 8 5 8 1 0 -13 -6 -11 -7 -24 -3 -28 4 -5 2 -5 -5 -1 -6 3
-15 1 -19 -5 -4 -8 -3 -9 5 -5 8 5 10 -1 6 -23 -3 -17 -1 -31 4 -31 6 0 8 9 6
20 -2 11 -1 22 3 24 4 3 8 -10 8 -29 0 -21 -4 -31 -12 -28 -9 3 -11 -5 -7 -27
3 -25 1 -30 -9 -25 -10 6 -11 5 0 -6 13 -14 17 -33 4 -25 -4 2 -8 -6 -8 -20 0
-13 4 -24 10 -24 6 0 5 -5 -2 -12 -19 -19 -14 -30 11 -24 12 3 16 3 10 0 -7
-3 -13 -12 -13 -20 0 -9 4 -13 9 -9 5 3 13 1 16 -5 4 -6 3 -10 -2 -9 -4 1 -17
1 -27 0 -19 -1 -19 -1 -1 -14 11 -9 19 -29 21 -52 1 -21 -1 -33 -5 -26 -6 9
-11 7 -22 -5 -9 -12 -10 -15 -1 -10 16 9 16 -6 0 -23 -8 -9 -8 -11 -2 -8 7 4
15 0 18 -9 5 -12 2 -15 -10 -10 -14 5 -15 4 -4 -9 10 -12 16 -13 29 -3 14 11
14 11 4 -3 -7 -9 -9 -20 -5 -24 4 -5 1 -5 -5 -1 -8 4 -13 1 -13 -8 0 -8 6 -17
13 -19 9 -4 9 -6 0 -6 -7 -1 -13 -10 -13 -22 0 -11 4 -18 8 -15 4 2 14 -4 21
-16 7 -11 8 -17 2 -14 -5 4 -12 2 -16 -4 -4 -6 -11 -7 -17 -4 -7 4 -7 0 0 -12
5 -11 7 -25 5 -31 -3 -7 0 -13 5 -13 5 0 9 8 8 18 -1 21 17 29 20 8 1 -8 -7
-24 -17 -35 -11 -12 -16 -21 -12 -21 5 0 9 -9 10 -20 1 -13 -2 -18 -9 -14 -7
4 -8 2 -4 -5 6 -9 11 -9 22 0 12 10 14 8 11 -9 -2 -12 -7 -25 -12 -29 -4 -5
-5 -2 -1 4 5 9 2 11 -10 6 -15 -6 -15 -7 0 -15 12 -7 22 -5 33 4 15 12 15 10
0 -13 -10 -14 -14 -29 -10 -32 3 -4 1 -7 -5 -7 -6 0 -10 -9 -9 -20 1 -19 12
-18 12 2 0 6 7 13 15 15 13 4 13 3 0 -6 -14 -10 -7 -16 13 -12 5 1 6 -3 2 -9
-3 -6 -11 -7 -17 -4 -7 4 -8 -2 -3 -17 7 -21 6 -22 -9 -10 -14 12 -16 12 -10
-3 4 -10 12 -15 20 -12 16 6 39 -20 24 -29 -12 -8 -14 -75 -1 -75 5 0 11 -10
14 -22 2 -13 8 -31 12 -40 4 -11 3 -18 -5 -18 -6 0 -8 5 -5 10 3 6 1 10 -5 10
-6 0 -9 3 -7 8 3 4 1 16 -4 27 -7 16 -8 14 -5 -10 5 -40 16 -66 26 -60 4 3 7
-15 6 -39 0 -27 -5 -42 -11 -38 -5 3 -4 -2 4 -12 8 -9 22 -15 32 -13 17 5 20
-16 4 -30 -4 -4 -5 -2 -1 4 5 9 2 11 -7 7 -16 -6 -17 -28 -2 -41 4 -4 6 -3 2
2 -3 6 6 16 20 22 24 11 24 11 10 -5 -17 -19 -31 -76 -17 -67 5 3 11 1 15 -4
3 -6 13 -8 23 -5 10 4 13 3 6 -3 -13 -10 -13 -53 1 -53 5 0 3 -5 -5 -11 -12
-9 -11 -10 8 -6 12 3 20 1 16 -4 -3 -5 -13 -9 -22 -10 -11 0 -12 -3 -4 -6 6
-2 12 -14 12 -24 0 -13 -4 -18 -12 -13 -7 4 -8 3 -4 -5 5 -8 12 -9 20 -2 8 7
16 4 26 -12 12 -20 12 -21 -4 -8 -15 13 -17 12 -12 -14 3 -15 7 -30 10 -33 3
-2 1 -12 -4 -21 -6 -13 -4 -17 10 -17 13 0 16 4 10 11 -6 8 -5 12 4 12 8 0 13
-7 11 -16 -1 -9 5 -19 14 -24 12 -5 10 -6 -5 -3 -12 2 -28 -1 -35 -6 -11 -7
-9 -8 5 -6 10 2 21 -3 24 -11 3 -8 0 -11 -7 -7 -6 4 -11 2 -11 -3 0 -15 13
-14 29 1 10 11 11 9 5 -6 -5 -14 -4 -17 5 -12 7 5 10 2 9 -5 -2 -7 2 -13 9
-14 6 0 15 -4 20 -9 5 -5 3 -6 -5 -2 -7 4 -15 1 -18 -8 -3 -9 -11 -13 -16 -10
-6 4 -6 9 2 14 9 6 6 12 -11 21 -22 11 -23 11 -10 -4 7 -10 10 -17 6 -17 -4 0
-2 -7 5 -15 7 -9 22 -13 34 -10 12 3 15 2 9 -1 -10 -4 -10 -11 -2 -27 10 -22
10 -22 -7 -2 -15 18 -16 18 -10 2 3 -10 6 -21 6 -23 0 -2 7 -4 17 -4 14 0 14
-3 -3 -22 -10 -12 -13 -18 -7 -14 8 4 17 -2 24 -18 7 -14 16 -23 20 -20 5 3 9
-7 9 -22 0 -24 2 -25 18 -13 13 10 12 8 -3 -10 -11 -14 -14 -21 -7 -17 16 9
16 -6 0 -24 -7 -7 1 -5 17 5 21 13 26 14 18 4 -10 -12 -10 -18 0 -29 9 -11 8
-11 -8 0 -19 14 -19 14 -2 -6 9 -11 14 -24 10 -27 -3 -4 -1 -7 5 -7 7 0 12 5
12 12 0 6 3 8 6 5 4 -4 1 -13 -5 -21 -8 -10 -9 -16 -1 -21 6 -3 7 -12 4 -18
-4 -8 -2 -7 7 1 12 11 12 14 -1 22 -8 5 -10 10 -3 10 6 0 21 -17 33 -37 12
-20 15 -31 7 -25 -12 10 -16 9 -20 -3 -4 -8 -3 -14 1 -14 18 3 32 -2 32 -11 0
-5 -7 -7 -15 -4 -8 4 -15 2 -15 -3 0 -8 15 -12 57 -15 10 -1 10 -5 1 -15 -9
-11 -9 -16 2 -23 8 -5 17 -7 20 -5 3 2 6 -12 7 -31 1 -24 -2 -32 -10 -28 -7 4
-8 3 -4 -2 5 -5 13 -10 18 -10 20 -3 21 -5 10 -17 -8 -10 -7 -14 3 -14 15 0
16 14 3 35 -5 7 -4 12 2 12 6 0 11 -3 12 -7 0 -5 3 -21 5 -36 3 -19 1 -26 -6
-22 -5 3 -10 1 -10 -4 0 -14 17 -14 25 -1 3 6 12 10 18 10 9 0 9 -2 0 -8 -10
-6 -11 -30 -3 -52 1 -3 2 -8 1 -12 0 -5 2 -7 7 -7 22 4 34 -3 28 -16 -3 -8 4
-24 16 -35 18 -17 19 -21 7 -37 -12 -16 -12 -17 2 -6 9 7 20 9 24 5 5 -4 6 0
3 9 -4 9 -1 16 8 16 19 0 18 -4 -13 -34 -16 -15 -22 -23 -14 -18 9 5 21 -1 35
-19 11 -14 33 -27 47 -28 25 -2 26 -4 13 -23 -13 -20 -12 -22 7 -21 13 1 23
-6 24 -17 2 -9 -2 -17 -8 -17 -7 0 -4 -5 6 -11 9 -6 15 -14 12 -20 -4 -5 2 -6
11 -2 12 4 15 3 10 -5 -5 -8 -1 -10 11 -5 16 6 16 5 4 -10 -8 -10 -11 -20 -7
-24 3 -3 6 -1 6 5 0 7 5 12 11 12 5 0 7 -4 4 -10 -3 -5 1 -10 9 -10 9 0 16 -5
16 -11 0 -5 -5 -7 -12 -3 -6 4 -8 3 -4 -4 3 -6 19 -9 34 -6 20 3 23 2 12 -6
-13 -9 -7 -14 13 -11 4 0 7 -4 7 -10 0 -6 -6 -9 -14 -6 -8 3 -17 0 -19 -7 -4
-9 2 -12 17 -11 19 2 23 -1 20 -21 -1 -13 3 -22 9 -21 7 1 11 -4 9 -11 -2 -10
2 -10 18 -2 16 8 20 8 18 -2 -2 -7 2 -12 9 -11 6 1 10 -8 8 -22 -2 -19 1 -23
10 -15 8 7 17 4 30 -10 10 -11 21 -17 25 -15 10 6 7 -15 -3 -32 -10 -16 9 -26
36 -18 21 7 21 6 3 -7 -15 -12 -16 -17 -6 -23 9 -5 11 -4 6 3 -4 7 -2 12 3 12
6 0 11 -5 11 -11 0 -5 6 -7 12 -3 8 5 8 2 -1 -10 -8 -9 -10 -16 -5 -15 22 4
26 -2 9 -14 -14 -11 -15 -16 -5 -22 8 -5 11 -4 6 3 -3 6 3 13 14 17 12 4 17
11 14 18 -4 7 -3 8 2 4 5 -5 9 -12 9 -16 0 -4 8 -16 18 -26 10 -9 16 -23 13
-31 -6 -15 18 -37 46 -41 27 -4 62 -30 50 -37 -6 -3 -12 1 -16 9 -3 8 -11 15
-18 15 -9 0 -9 -3 -2 -8 6 -4 16 -16 22 -27 6 -11 12 -14 12 -7 0 22 29 12 42
-15 14 -30 46 -42 58 -23 5 9 9 9 14 1 4 -6 2 -11 -5 -11 -7 0 -4 -6 6 -14 11
-8 24 -12 29 -9 5 4 6 1 2 -5 -6 -11 6 -16 27 -13 4 0 6 -2 6 -6 -4 -26 2 -35
15 -24 10 8 16 9 21 1 4 -6 1 -9 -6 -8 -6 2 -13 -2 -16 -8 -2 -7 4 -11 14 -10
13 1 17 -5 16 -24 l-3 -25 14 24 c11 20 14 21 19 6 10 -25 8 -32 -4 -15 -9 13
-10 13 -6 0 2 -10 14 -14 38 -12 l34 2 -30 -14 -30 -15 33 6 c20 3 32 1 32 -5
0 -6 -6 -9 -14 -6 -8 3 -17 1 -21 -5 -4 -7 0 -8 11 -4 13 5 15 3 9 -8 -5 -8 1
-5 13 5 12 11 25 16 29 13 3 -4 1 -7 -6 -7 -7 0 -9 -5 -6 -10 4 -6 12 -7 18
-3 7 4 5 -1 -3 -12 -14 -17 -13 -17 8 -11 16 5 22 4 20 -6 -2 -7 2 -12 8 -11
6 1 22 -9 34 -22 25 -27 40 -32 40 -14 0 5 -4 7 -10 4 -6 -4 -7 1 -3 11 4 11
8 13 11 6 2 -7 8 -10 13 -7 5 4 6 0 4 -8 -3 -7 3 -24 15 -37 11 -13 20 -19 20
-13 0 5 -3 13 -7 17 -4 3 -8 14 -9 23 -2 12 0 13 9 4 7 -7 13 -16 13 -21 1 -6
2 -14 3 -20 0 -5 8 -10 17 -10 9 0 12 -5 8 -12 -6 -9 -3 -9 9 0 14 12 16 11
12 -10 -4 -21 -3 -22 9 -5 9 12 16 14 21 7 3 -5 11 -8 16 -5 5 4 9 1 9 -5 0
-7 -7 -10 -15 -7 -8 4 -17 2 -20 -2 -3 -5 9 -8 26 -7 16 1 33 -2 36 -7 4 -6 1
-7 -7 -2 -9 6 -11 4 -5 -5 6 -10 11 -9 21 5 12 16 13 15 9 -14 -2 -17 0 -29 5
-26 4 3 10 0 12 -7 3 -7 7 -5 11 6 4 9 3 15 -2 11 -5 -3 -13 0 -17 6 -5 8 -3
9 6 4 10 -6 12 -4 6 11 -5 12 -4 16 3 9 5 -5 11 -17 13 -25 6 -30 25 -42 87
-54 7 -1 20 -13 28 -27 l14 -24 -6 25 c-5 21 -4 22 5 8 6 -10 18 -15 28 -12
14 5 14 3 -2 -10 -23 -18 -14 -21 15 -5 17 9 21 7 26 -10 7 -28 22 -27 17 2
-2 12 -1 15 2 7 4 -8 12 -18 18 -22 8 -6 7 -11 -2 -17 -11 -7 -10 -9 3 -14 9
-4 13 -3 10 3 -3 6 3 10 14 10 19 0 26 -11 22 -33 -1 -5 3 -6 8 -3 5 4 11 1
13 -6 3 -7 7 -5 11 6 4 9 3 15 -2 11 -5 -3 -12 -1 -16 4 -3 6 3 8 15 6 11 -2
20 1 20 7 0 6 3 9 6 6 3 -4 1 -15 -5 -26 -9 -18 -8 -19 12 -14 19 5 20 3 10
-10 -10 -12 -10 -15 2 -15 8 0 12 4 9 9 -3 5 7 6 23 3 15 -4 34 -7 41 -7 8 -1
7 -8 -5 -21 -18 -19 -17 -20 7 -6 14 8 29 19 33 24 5 6 5 0 2 -12 -5 -17 -2
-23 10 -23 10 0 14 5 9 13 -5 9 -3 9 7 -1 12 -11 12 -14 -1 -23 -12 -8 -10 -9
7 -4 48 13 62 13 67 -1 3 -8 2 -13 -3 -10 -5 3 -12 -1 -15 -10 -6 -15 -4 -15
18 0 30 19 36 20 36 5 0 -5 -4 -7 -10 -4 -6 4 -7 -1 -3 -11 5 -14 7 -15 15 -1
5 9 15 14 23 11 9 -4 15 0 15 7 0 8 5 6 13 -6 8 -10 19 -15 26 -11 6 4 11 4
10 -1 -4 -22 3 -31 26 -35 14 -3 28 -1 32 5 3 6 1 7 -5 3 -16 -10 -15 -1 2 13
10 9 13 7 13 -6 0 -40 3 -53 13 -53 7 0 7 6 0 20 -7 14 -7 20 0 20 5 0 10 -5
10 -11 0 -8 6 -7 17 2 15 12 16 12 10 -3 -4 -11 -2 -17 6 -15 7 1 11 -5 9 -13
-2 -8 0 -12 4 -8 4 4 14 2 23 -4 10 -8 9 -4 -3 10 -13 15 -15 22 -6 22 7 0 19
-8 27 -17 13 -16 13 -16 7 7 -6 24 -6 24 9 5 8 -11 14 -22 12 -26 -2 -3 2 -6
10 -6 18 0 18 2 4 30 -9 19 -7 18 10 -3 18 -22 26 -21 22 3 -1 5 3 6 8 2 6 -3
8 -12 5 -19 -3 -8 0 -17 5 -21 6 -3 8 -12 4 -18 -3 -7 3 -4 14 6 11 9 22 16
24 15 2 -2 1 1 -4 7 -5 6 -11 5 -16 -4 -5 -8 -11 -9 -15 -3 -9 15 25 24 41 11
8 -7 12 -18 9 -25 -5 -13 19 -13 31 1 4 4 3 5 -3 2 -6 -3 -11 0 -11 8 0 10 4
12 12 5 7 -5 16 -6 20 -2 5 4 5 2 2 -4 -4 -7 0 -15 9 -18 22 -8 26 -8 19 4 -3
6 1 7 10 4 8 -4 23 0 33 7 12 10 12 7 -3 -10 -11 -14 -15 -21 -8 -18 6 4 14 1
16 -5 3 -7 6 -4 6 6 1 19 1 19 14 1 11 -14 16 -15 22 -5 5 9 4 11 -3 6 -17
-10 -15 -1 4 14 12 11 15 11 12 -1 -2 -8 2 -13 9 -12 12 3 12 -13 -1 -37 -4
-8 4 -2 18 15 14 16 28 26 32 22 4 -4 2 -7 -5 -7 -7 0 -11 -5 -9 -11 2 -6 7
-10 12 -9 5 1 13 -4 17 -12 7 -10 9 -10 9 0 0 8 5 10 13 5 6 -4 19 -8 27 -8 8
0 21 -4 28 -9 8 -5 18 -3 25 4 9 10 9 11 -1 6 -7 -4 -18 -3 -25 2 -7 5 -20 8
-30 7 -9 -2 -15 1 -11 6 3 5 9 7 14 4 4 -3 11 1 13 7 4 10 6 10 6 1 1 -7 13
-13 27 -13 16 0 23 4 18 12 -4 7 -3 8 4 4 6 -4 8 -14 5 -24 -5 -13 -4 -15 8
-6 17 13 95 -6 82 -20 -4 -5 -2 -6 5 -2 6 4 12 15 12 24 0 14 2 15 9 2 6 -8 7
-18 4 -24 -3 -5 -1 -6 6 -2 6 4 9 11 6 16 -3 4 7 7 22 5 16 -2 34 2 42 9 12 8
13 8 7 -2 -5 -9 -3 -12 5 -10 8 1 27 -6 42 -16 22 -15 31 -16 40 -7 9 10 9 11
-3 8 -8 -2 -12 -2 -7 0 4 3 4 9 1 14 -3 6 -11 5 -20 -2 -8 -7 -14 -7 -14 -1 0
5 6 12 14 15 15 6 59 -30 52 -42 -3 -4 1 -8 8 -8 7 0 13 6 13 13 0 7 -4 11 -9
8 -4 -3 -8 -1 -8 5 0 5 9 9 20 8 12 -1 18 -7 16 -14 -3 -7 -2 -14 2 -17 4 -3
9 5 9 16 3 28 24 40 43 24 8 -7 21 -11 29 -8 7 2 17 -2 22 -9 5 -8 9 -9 9 -3
0 6 14 11 30 12 17 0 30 -3 30 -8 0 -4 7 -11 16 -14 8 -3 12 -2 9 4 -3 6 1 10
10 10 9 0 14 -4 10 -9 -3 -5 -1 -12 4 -16 6 -3 8 6 5 22 -3 20 -2 24 5 14 5
-8 20 -16 33 -18 18 -2 20 -1 8 7 -11 7 -12 10 -2 10 7 0 20 -7 28 -15 9 -8
20 -15 25 -15 6 0 3 7 -5 16 -20 19 -20 21 -1 21 8 0 12 -4 9 -9 -3 -4 0 -8 5
-8 6 0 11 5 11 11 0 5 4 8 10 4 5 -3 7 -13 4 -23 -3 -10 0 -8 8 5 18 30 20 30
52 10 15 -10 30 -16 34 -13 3 3 0 6 -7 6 -7 0 -9 5 -5 12 4 6 3 8 -4 4 -6 -3
-14 -1 -18 6 -4 7 -4 10 1 6 4 -4 14 -3 21 3 8 7 14 6 20 -2 5 -8 3 -9 -6 -4
-9 6 -11 4 -5 -4 5 -9 10 -10 18 -2 18 18 31 13 17 -7 -7 -9 -1 -4 14 11 29
32 35 24 9 -13 l-17 -25 23 20 c28 24 24 23 47 5 18 -14 18 -14 5 2 -7 10 -17
16 -20 13 -4 -2 -8 2 -8 10 0 8 3 13 5 10 3 -3 12 1 21 8 14 10 14 10 3 -4
-10 -14 -9 -17 8 -22 19 -5 25 4 20 28 -1 6 2 6 7 2 4 -5 8 -14 8 -20 1 -7 7
-10 15 -8 8 2 21 4 28 4 6 0 12 4 12 9 0 4 4 8 10 8 5 0 7 -8 4 -17 -5 -15 -4
-15 4 -3 6 8 9 17 6 21 -2 4 1 11 7 15 7 4 9 3 6 -3 -4 -6 3 -19 16 -29 19
-17 20 -17 8 -1 -12 15 -12 20 -1 30 10 9 11 9 5 -2 -6 -10 -2 -11 15 -6 17 6
21 4 14 -6 -6 -12 -5 -12 8 -1 9 8 14 20 11 28 -3 8 0 14 5 14 6 0 9 -9 7 -19
-2 -11 3 -25 10 -31 11 -10 13 -8 10 8 -2 15 3 21 21 25 19 3 22 1 14 -8 -8
-10 -7 -15 2 -21 7 -4 10 -3 5 1 -4 5 0 17 10 27 18 20 33 24 33 7 0 -5 -4 -7
-10 -4 -6 4 -7 -1 -3 -11 6 -16 8 -15 16 4 7 15 19 22 39 22 17 0 27 4 23 10
-3 6 -2 10 4 10 5 0 11 -5 13 -11 3 -9 10 -9 26 0 17 9 22 9 22 -1 0 -6 6 -3
14 7 8 11 12 24 9 29 -4 5 -1 6 5 2 7 -4 12 -2 12 5 0 7 3 10 6 6 3 -3 2 -12
-2 -19 -12 -19 -14 -39 -3 -32 6 3 14 16 19 29 6 15 16 22 27 20 10 -1 22 0
28 3 17 10 43 9 41 -2 -2 -6 -1 -8 1 -3 3 4 9 5 14 2 5 -4 6 0 3 8 -9 25 34
28 58 4 11 -12 18 -16 14 -9 -14 24 -17 62 -5 62 7 0 9 -3 6 -6 -9 -9 11 -44
26 -44 8 0 9 3 1 8 -13 8 -15 44 -2 36 5 -3 6 -10 3 -15 -4 -5 -2 -9 3 -9 6 0
12 7 16 15 3 10 15 14 35 11 17 -2 28 1 25 6 -3 5 -13 7 -21 4 -8 -3 -11 -2
-8 3 3 6 25 9 49 8 37 -2 42 0 33 12 -9 11 -9 13 0 8 6 -4 14 -3 18 3 3 5 1
10 -6 10 -7 0 -9 3 -6 6 4 4 13 2 20 -4 8 -7 17 -9 20 -5 4 3 14 0 24 -8 13
-11 15 -11 9 -1 -5 9 -1 15 13 19 11 3 19 9 16 13 -3 5 -1 11 4 14 5 4 13 1
17 -5 5 -8 3 -9 -6 -4 -9 5 -11 4 -6 -4 11 -16 29 -2 21 17 -3 9 -3 13 1 10 4
-4 16 -1 28 7 24 18 36 19 36 4 0 -5 -4 -8 -9 -5 -4 3 -17 -1 -27 -10 -18 -14
-18 -15 3 -5 16 8 23 8 26 -2 4 -9 6 -9 6 1 1 6 8 12 16 12 8 0 15 5 15 11 0
5 -4 7 -10 4 -5 -3 -7 0 -5 7 3 8 15 15 28 15 15 2 18 0 8 -6 -9 -6 -3 -8 17
-8 17 1 29 4 26 6 -8 8 18 31 29 24 5 -3 7 -1 3 5 -3 6 -2 13 4 17 6 4 7 12 3
18 -3 7 3 4 13 -5 19 -17 21 -17 41 2 12 10 30 17 41 15 16 -3 20 1 17 20 -1
14 2 22 6 19 5 -3 9 -1 9 5 0 11 31 3 40 -10 3 -5 12 2 19 14 13 20 13 21 -2
9 -14 -12 -16 -11 -14 6 1 14 6 18 22 14 18 -5 19 -4 5 14 -14 17 -14 18 2 6
9 -8 14 -20 11 -28 -3 -8 0 -14 7 -14 6 0 8 4 5 10 -3 5 2 10 12 10 15 0 16 2
3 10 -13 8 -13 11 -1 22 10 10 12 10 7 1 -4 -7 -3 -13 2 -13 12 0 23 27 14 33
-4 2 -1 2 7 0 8 -2 25 7 39 19 14 13 22 18 18 11 -3 -6 -2 -14 4 -18 10 -6 14
6 11 35 -1 10 1 11 6 4 14 -19 41 -24 47 -8 4 10 2 13 -7 8 -6 -4 -9 -4 -5 1
4 4 2 15 -5 24 -10 14 -10 14 5 3 9 -8 22 -11 27 -7 7 4 9 -1 5 -12 -5 -15 -4
-16 5 -3 6 8 8 24 5 35 -4 15 -3 17 5 6 9 -15 54 -24 45 -10 -2 4 5 11 17 14
11 4 18 9 16 12 -3 2 -20 -3 -39 -13 -18 -9 -30 -13 -26 -9 4 5 2 15 -5 24
-11 14 -10 14 5 2 15 -11 21 -11 42 2 15 10 27 12 33 6 6 -6 15 -4 24 7 9 12
10 15 2 10 -7 -4 -13 -3 -13 2 0 16 13 22 27 11 10 -9 13 -8 13 0 0 7 4 10 9
7 5 -4 8 4 7 17 -2 20 1 23 26 21 15 -1 31 2 34 7 3 5 10 7 15 3 5 -3 8 0 7 8
-2 7 3 12 10 10 6 -1 11 4 10 10 -2 8 6 13 19 12 13 -1 20 3 17 7 -3 5 -9 7
-14 4 -4 -3 -14 3 -21 13 -12 15 -12 16 1 6 16 -12 51 -5 52 10 0 5 -6 13 -14
17 -8 6 -1 7 19 5 18 -2 30 1 27 5 -5 8 9 13 28 10 4 0 5 5 2 13 -4 10 2 13
22 10 20 -2 24 0 15 9 -16 16 -14 27 5 27 8 0 13 -4 10 -9 -7 -11 21 -8 31 4
4 4 3 5 -3 2 -7 -4 -17 0 -24 8 -11 13 -10 15 6 12 11 -1 26 -7 34 -12 13 -8
13 -7 1 8 -12 15 -10 18 10 26 13 5 19 10 13 10 -7 1 -15 8 -18 17 -3 8 -2 12
4 9 6 -3 13 1 16 10 6 14 8 14 21 -2 8 -10 11 -12 8 -5 -5 9 -1 12 11 10 11
-2 19 3 19 12 1 8 6 14 13 12 7 -1 11 4 10 10 -2 8 5 12 17 10 16 -2 17 -1 5
7 -8 5 -17 8 -21 5 -4 -2 -11 0 -14 6 -4 6 -1 9 7 8 7 -2 12 3 10 10 -1 6 3
11 10 10 7 -2 12 4 13 12 0 11 9 14 30 12 17 -2 27 -1 23 3 -4 4 0 14 8 22 8
9 13 22 10 30 -3 8 -2 12 2 9 12 -7 39 28 34 44 -3 13 -2 13 7 0 7 -11 5 -20
-11 -37 -12 -13 -17 -23 -12 -23 5 0 2 -4 -6 -10 -8 -5 -11 -12 -7 -16 9 -9
18 -1 22 23 1 10 8 17 14 16 6 -2 10 2 8 9 -1 7 3 12 10 13 6 0 15 4 20 9 4 5
3 6 -3 3 -15 -9 -26 31 -12 40 6 3 8 1 5 -4 -4 -6 0 -14 9 -17 10 -4 13 -2 8
6 -5 7 -2 9 9 5 12 -4 14 -2 10 10 -4 10 -2 14 5 9 6 -3 13 -2 16 3 7 11 -13
9 -31 -2 -8 -5 -13 -4 -13 2 0 6 5 11 11 11 5 0 7 4 4 10 -4 6 1 7 11 3 11 -4
15 -2 11 4 -4 6 0 10 10 9 9 0 18 5 20 12 3 8 -2 10 -14 6 -17 -5 -17 -5 0 6
9 6 15 15 12 21 -4 5 2 6 12 2 16 -6 16 -5 4 10 -12 15 -12 17 3 11 9 -3 23
-3 32 0 14 5 14 9 3 23 -13 15 -12 15 8 5 19 -11 21 -10 16 11 -3 12 -2 19 2
14 5 -4 16 0 26 9 15 13 16 21 7 38 l-11 21 24 -20 c13 -11 18 -13 12 -5 -20
22 -15 32 10 19 21 -12 22 -11 4 8 -16 18 -16 21 -2 27 9 3 13 2 10 -3 -3 -5
-1 -12 4 -15 10 -7 9 13 -2 31 -4 6 -2 15 4 19 8 4 9 3 5 -4 -4 -7 -2 -12 3
-12 6 0 11 4 11 10 0 5 5 9 12 7 7 -1 13 4 14 11 1 6 3 14 4 17 1 3 3 9 4 14
2 16 16 25 16 11 0 -7 3 -10 6 -7 4 4 1 13 -5 21 -11 13 -8 16 13 22 14 3 24
11 23 18 -1 6 5 10 13 8 10 -3 9 3 -5 19 -11 12 -14 19 -6 14 11 -6 13 -4 7
10 -6 16 -4 16 10 4 16 -13 16 -12 6 8 -18 34 -14 39 10 12 13 -15 19 -18 15
-7 -6 18 15 42 28 30 5 -4 5 -2 1 5 -3 7 5 23 21 37 20 19 24 28 15 38 -10 13
-2 41 12 39 3 -1 15 8 26 19 11 11 16 20 11 20 -12 0 -8 40 6 48 6 4 14 19 16
32 6 36 18 60 29 60 6 0 4 -7 -3 -16 -7 -9 -14 -26 -16 -37 -2 -17 -1 -19 6
-7 5 8 8 17 5 21 -2 4 3 12 11 19 8 7 12 16 9 21 -3 5 0 9 6 9 6 0 8 5 5 10
-3 6 -1 10 5 10 6 0 8 5 5 10 -4 6 -2 17 4 24 6 7 11 26 13 43 1 18 6 30 10
27 4 -3 5 -11 2 -18 -3 -8 -1 -16 4 -20 5 -3 8 8 7 25 -1 21 2 28 11 25 8 -3
11 0 8 9 -3 8 -12 11 -19 9 -7 -3 -16 -1 -19 4 -3 5 2 9 12 8 9 0 18 6 18 14
1 8 3 20 4 25 1 6 2 14 1 18 -1 5 3 6 9 2 5 -3 10 2 11 12 0 10 3 13 6 6 6
-15 29 -17 38 -3 4 6 -1 7 -11 3 -14 -5 -16 -2 -11 16 5 19 3 21 -11 9 -15
-11 -15 -11 -5 3 7 9 9 19 5 24 -4 4 3 2 16 -4 12 -7 20 -17 16 -23 -4 -7 -2
-8 5 -4 9 6 9 11 1 21 -8 10 -6 17 10 28 14 10 17 16 9 19 -7 2 -9 9 -5 17 5
7 15 10 25 7 12 -5 11 -2 -3 9 -11 8 -16 15 -12 15 5 0 2 8 -5 17 -10 11 -10
14 -1 9 6 -4 12 -3 12 3 0 5 -6 12 -12 15 -7 3 -4 5 7 5 37 -2 46 1 39 12 -4
8 -9 7 -15 -2 -7 -11 -9 -10 -9 3 0 9 7 24 16 32 8 9 11 16 6 16 -6 0 -13 7
-16 16 -6 15 -3 14 21 -1 22 -15 25 -15 15 -3 -8 10 -9 19 -3 22 5 4 8 20 6
36 -3 22 -1 29 8 23 8 -5 8 -2 -1 9 -10 13 -10 18 -1 24 8 5 9 3 4 -6 -5 -8
-4 -11 3 -6 12 7 5 37 -12 48 -7 5 -7 8 2 8 7 0 10 5 6 11 -8 14 46 70 60 62
6 -4 5 0 -1 9 -7 8 -9 19 -5 23 4 5 2 5 -4 2 -8 -5 -11 4 -10 23 0 17 6 30 14
30 10 0 10 5 1 21 -7 13 -7 19 -1 15 6 -3 13 -2 17 4 3 5 2 10 -2 10 -5 0 -9
14 -9 31 -2 31 6 34 10 5 1 -9 5 -16 9 -16 9 0 9 2 1 24 -4 11 -2 21 7 27 8 5
9 9 3 9 -7 0 -11 13 -10 29 0 16 4 27 8 25 4 -2 5 -13 3 -24 -2 -12 0 -18 5
-15 4 3 7 13 5 23 -2 9 -4 23 -4 30 -1 8 -6 10 -13 6 -7 -4 -4 2 6 14 13 15
23 19 31 12 8 -7 12 -6 12 3 0 16 -26 18 -47 4 -8 -6 -4 1 10 15 14 14 27 24
30 22 3 -1 7 6 7 17 2 19 1 19 -15 -1 -13 -15 -20 -17 -32 -9 -13 9 -13 10 2
6 9 -3 19 1 22 9 9 23 7 26 -6 18 -10 -6 -10 -4 -2 7 11 13 14 29 15 74 0 16
2 17 9 5 5 -8 5 -22 -1 -34 -9 -19 -9 -20 4 -4 8 10 17 14 22 10 4 -4 2 3 -6
15 -11 18 -10 24 2 39 8 10 9 15 4 12 -6 -4 -17 3 -25 15 -12 20 -11 21 2 9
13 -10 17 -10 22 3 3 9 2 13 -4 10 -14 -9 -13 32 2 58 11 21 10 21 -8 7 -10
-8 -16 -10 -12 -6 4 5 2 16 -5 24 -10 13 -9 14 3 7 15 -9 50 -15 50 -8 0 2
-12 8 -26 13 -27 11 -24 33 4 24 15 -5 15 -4 2 8 -13 11 -18 41 -10 66 1 4 1
15 0 26 -1 10 2 16 8 13 5 -4 9 0 9 8 0 8 -4 12 -9 9 -4 -3 -8 0 -8 6 0 6 6
13 13 16 8 3 14 11 14 19 0 8 -4 12 -9 9 -4 -3 -8 4 -8 15 0 11 5 23 10 26 8
5 7 11 -1 21 -6 7 -9 21 -5 29 3 9 2 14 -3 11 -13 -9 -23 25 -11 39 5 6 7 15
3 19 -10 10 -11 66 -1 60 5 -3 6 -16 4 -30 -3 -13 -1 -22 3 -19 5 2 7 15 6 27
-1 13 -3 29 -4 36 0 8 -6 10 -13 6 -10 -6 -10 -5 -1 8 7 8 9 19 5 23 -4 5 -1
5 6 0 11 -6 12 -3 3 13 -8 15 -8 22 2 25 7 4 6 6 -4 6 -17 1 -18 30 -4 77 5
15 1 23 -16 30 -20 9 -21 11 -5 17 10 4 15 3 11 -3 -3 -6 -2 -10 3 -10 5 0 10
11 10 25 0 18 -4 23 -12 16 -8 -6 -11 -2 -11 14 0 18 3 21 13 12 11 -8 11 -5
1 17 -10 20 -10 29 -1 38 7 7 12 16 12 22 0 5 -6 1 -14 -10 -15 -19 -15 -19
-15 1 1 11 -2 30 -6 43 -5 13 -3 22 4 22 5 0 8 -6 5 -14 -3 -8 0 -17 7 -22 8
-5 10 -3 4 6 -4 7 -2 16 5 20 9 6 7 10 -9 15 -11 3 -22 11 -22 16 -1 5 -2 15
-3 22 -1 6 1 26 5 44 5 26 4 30 -10 25 -14 -5 -14 -4 -1 13 9 11 10 16 3 11
-9 -5 -13 2 -13 24 0 20 4 29 11 25 6 -4 8 -14 4 -24 -5 -13 -4 -13 6 -4 10
10 8 18 -11 38 -12 13 -27 22 -31 19 -5 -3 -9 0 -9 6 0 6 11 8 25 6 23 -4 24
-3 13 17 -16 28 -17 39 -4 57 10 13 9 13 -6 1 -10 -7 -15 -17 -12 -22 3 -5 0
-9 -6 -9 -7 0 -9 8 -5 20 5 15 2 20 -12 20 -15 0 -15 2 -3 9 8 6 19 7 25 3 6
-3 5 0 -1 9 -6 8 -10 24 -8 36 3 15 -3 24 -17 28 -15 5 -18 10 -10 15 13 8 11
31 -4 43 -6 4 -4 11 5 17 11 7 12 10 2 10 -8 0 -12 6 -9 13 2 6 -2 24 -9 39
-11 21 -11 28 -1 32 6 3 2 3 -10 0 -25 -6 -30 5 -10 25 10 11 10 13 0 7 -16
-9 -17 6 -1 22 9 9 9 12 0 12 -7 0 -12 -4 -12 -10 0 -5 -5 -10 -12 -10 -6 0
-8 3 -5 6 11 11 -13 45 -26 38 -9 -5 -9 -4 0 6 6 7 9 19 6 28 -5 11 -3 13 8 7
8 -4 11 -5 7 0 -4 4 -3 14 3 21 8 10 5 12 -17 8 l-27 -5 18 28 c16 24 16 26 2
14 -15 -12 -17 -11 -17 10 0 46 -3 59 -17 59 -11 0 -10 -6 3 -27 11 -19 11
-22 2 -11 -8 10 -18 15 -21 12 -8 -8 -3 18 6 34 5 7 14 9 20 5 7 -3 3 3 -7 15
-11 12 -16 22 -12 22 4 0 2 9 -4 20 -6 11 -16 20 -23 20 -8 0 -8 -3 1 -9 11
-7 11 -9 0 -14 -9 -3 -14 3 -14 18 0 17 5 22 18 20 10 -2 16 0 13 5 -3 5 -19
7 -37 5 -27 -4 -29 -3 -13 8 16 13 16 14 0 31 -11 10 -15 26 -12 41 3 20 2 23
-9 14 -11 -9 -14 -8 -14 0 0 7 -4 10 -8 7 -5 -3 -9 1 -9 9 0 10 4 12 12 5 9
-8 14 -6 19 5 3 9 2 13 -3 10 -5 -3 -13 -1 -16 5 -5 8 -12 7 -23 -2 -15 -12
-16 -11 -3 5 7 9 10 17 5 17 -5 0 0 8 11 16 19 16 19 16 -5 9 -22 -7 -23 -6
-11 9 7 9 9 16 4 16 -6 0 -20 9 -33 20 -13 11 -19 20 -14 20 6 0 15 -5 20 -10
7 -7 11 -6 11 4 0 8 -4 13 -9 10 -4 -3 -8 -1 -8 5 0 6 -8 8 -17 5 -15 -5 -15
-4 -3 4 8 6 17 9 21 6 4 -2 11 0 14 6 4 6 3 10 -2 9 -20 -3 -34 2 -28 11 4 6
-1 7 -12 3 -16 -6 -16 -5 -4 10 11 15 11 17 -2 17 -8 0 -18 -6 -20 -12 -4 -10
-6 -10 -6 -1 -1 6 9 19 21 27 19 13 20 18 9 28 -11 10 -13 10 -7 0 4 -7 0 -15
-11 -19 -10 -4 -21 -11 -25 -17 -5 -8 -8 -8 -8 0 0 6 7 17 15 24 17 14 20 30
4 30 -5 0 -7 -5 -3 -12 4 -7 3 -8 -4 -4 -7 4 -12 15 -12 24 0 15 -2 15 -10 2
-6 -9 -10 -10 -10 -3 0 6 4 15 10 18 11 7 -12 59 -31 71 -7 4 -9 3 -6 -2 3 -6
1 -16 -4 -24 -7 -11 -8 -7 -5 13 6 32 -2 57 -16 57 -6 0 -6 -6 1 -14 9 -11 9
-16 -1 -22 -7 -4 -10 -3 -5 1 4 5 -1 17 -10 28 -10 12 -12 17 -4 12 9 -5 12
-3 9 6 -3 8 -13 13 -23 11 -14 -3 -15 -1 -4 11 8 8 19 13 24 10 6 -2 2 2 -7
10 -10 8 -14 18 -10 22 4 5 2 5 -5 1 -7 -4 -11 -12 -9 -19 1 -7 1 -9 -1 -4 -3
4 -10 4 -16 0 -7 -4 -4 5 6 21 l18 27 -23 -12 c-21 -11 -22 -11 -10 4 14 17 7
41 -9 32 -5 -4 -9 -1 -9 6 0 7 -3 9 -7 6 -7 -7 -36 30 -39 50 -1 7 3 13 9 13
5 0 7 3 4 6 -4 4 -13 1 -21 -5 -11 -9 -16 -9 -22 0 -4 8 -3 9 4 5 7 -4 12 -1
12 9 0 11 -5 15 -15 12 -8 -4 -17 -1 -21 5 -4 7 -3 8 4 4 7 -4 12 -2 12 4 0 6
5 8 10 5 6 -3 10 -1 10 5 0 7 -8 9 -19 5 -11 -3 -22 -1 -26 5 -3 6 -11 8 -16
5 -5 -4 -9 -1 -9 4 0 15 13 14 29 -1 10 -11 11 -10 6 5 -4 9 -12 17 -19 17 -7
0 -6 3 2 9 11 7 10 9 -3 14 -9 4 -13 3 -10 -2 3 -5 1 -12 -5 -16 -6 -4 -10 5
-10 20 0 20 -4 26 -15 22 -8 -4 -17 -1 -21 5 -4 7 -3 8 4 4 7 -4 12 -2 12 3 0
6 -5 11 -11 11 -8 0 -7 5 1 15 7 9 10 18 6 22 -3 3 -6 2 -6 -4 0 -6 -12 -13
-27 -16 l-28 -5 23 19 23 18 -28 -2 c-25 -2 -28 1 -27 26 1 15 -1 26 -3 23 -3
-2 -18 0 -35 6 -25 9 -28 12 -14 20 13 7 14 13 5 30 -11 21 -12 21 -26 2 -14
-18 -15 -18 -8 5 5 17 4 21 -5 16 -9 -5 -10 -2 -6 13 4 11 3 23 -3 26 -12 8
-22 -19 -15 -41 5 -15 4 -16 -5 -2 -10 16 -10 37 1 54 4 6 3 17 -3 25 -7 12
-9 12 -9 2 0 -9 -11 -4 -31 12 -17 14 -35 26 -40 26 -5 0 -9 5 -9 11 0 5 5 7
12 3 7 -4 8 -3 4 5 -6 9 -11 9 -23 -1 -14 -11 -15 -10 -9 9 5 16 3 21 -11 19
-11 0 -17 5 -17 17 2 24 -5 21 -17 -5 -8 -20 -9 -20 -4 6 5 23 3 27 -9 23 -9
-4 -18 -2 -21 4 -4 5 -11 6 -17 3 -6 -4 -8 -2 -4 4 3 6 2 13 -3 17 -6 3 -8 12
-4 20 3 8 0 15 -6 15 -6 0 -11 -4 -11 -10 0 -5 -5 -10 -11 -10 -8 0 -7 5 1 15
10 13 10 19 -4 33 -9 10 -13 23 -9 27 5 5 1 4 -8 -3 -17 -13 -49 -7 -49 10 0
5 -5 6 -12 2 -7 -4 -8 -3 -4 4 4 7 2 12 -5 12 -7 0 -9 3 -6 7 4 3 18 -4 31
-16 16 -15 26 -19 31 -12 4 7 1 10 -7 9 -7 -2 -12 4 -10 12 2 8 0 12 -4 8 -4
-4 -13 -3 -20 3 -8 6 -20 9 -29 6 -8 -4 -17 -2 -20 4 -4 5 -11 6 -17 3 -5 -4
-2 6 8 22 l18 29 -22 -19 c-12 -11 -25 -16 -29 -13 -3 4 -2 7 4 7 6 0 14 7 17
16 3 8 2 12 -3 9 -6 -3 -14 2 -19 11 -6 11 -11 13 -16 5 -4 -6 -13 -11 -19
-11 -7 0 -6 4 3 10 13 8 12 10 -3 10 -10 0 -16 4 -13 9 3 5 -1 11 -9 15 -8 3
-13 11 -11 18 1 7 1 10 -1 5 -3 -4 -10 -4 -15 -1 -7 4 -8 2 -4 -4 4 -7 2 -12
-3 -12 -6 0 -11 7 -11 15 0 8 5 15 12 15 6 0 9 2 6 5 -9 10 -38 -7 -31 -18 3
-5 1 -7 -4 -4 -6 4 -9 19 -7 34 4 24 3 25 -5 8 -7 -15 -10 -16 -11 -5 -2 8 -2
18 -1 23 0 4 -2 6 -6 6 -5 -1 -15 -1 -23 0 -12 1 -12 3 -2 10 11 7 11 9 -1 14
-12 4 -14 0 -11 -19 2 -13 1 -24 -4 -24 -8 0 -12 14 -13 52 0 14 -3 15 -14 5
-7 -6 -10 -16 -7 -21 3 -5 0 -6 -7 -2 -9 6 -9 11 0 22 14 17 5 18 -22 3 -20
-10 -20 -10 -2 18 17 27 17 28 -1 13 -24 -19 -43 -21 -43 -4 0 11 3 11 16 1
14 -10 14 -10 4 4 -7 9 -10 18 -8 21 3 3 -6 3 -20 1 -27 -6 -32 5 -12 27 10
12 9 12 -3 2 -25 -18 -60 -11 -60 13 -1 18 -2 18 -15 -5 -17 -30 -19 -22 -5
16 9 24 9 25 -5 14 -11 -9 -15 -9 -15 -1 0 8 -8 10 -19 6 -12 -3 -21 0 -25 10
-3 8 -10 15 -16 15 -6 0 -8 -5 -4 -12 4 -7 3 -8 -5 -4 -15 10 -3 29 15 22 7
-3 16 -1 19 4 6 9 -36 7 -52 -3 -5 -3 -10 0 -10 8 0 8 3 12 7 10 4 -2 7 3 7
11 0 10 -4 11 -11 4 -14 -14 -27 -13 -24 3 2 6 -4 10 -12 9 -42 -10 -50 -10
-50 0 0 5 7 8 15 5 8 -4 16 -3 19 1 3 4 -5 9 -17 9 -12 1 -25 -3 -29 -10 -5
-8 -8 -6 -8 6 0 19 -11 22 -26 7 -6 -6 -10 -2 -11 12 -1 13 1 18 5 13 9 -13
52 -17 52 -5 0 6 -3 9 -7 9 -26 -4 -43 2 -37 14 4 6 -1 4 -12 -5 -18 -16 -22
-15 -61 11 -23 16 -39 32 -35 37 4 5 0 3 -8 -3 -10 -8 -21 -9 -30 -3 -10 7
-11 10 -2 10 24 0 11 16 -15 18 -22 1 -25 0 -13 -9 10 -7 11 -9 2 -7 -8 2 -14
8 -14 13 0 28 -19 42 -49 39 -37 -5 -72 12 -63 29 4 7 4 9 -1 5 -4 -4 -17 -3
-28 3 -14 8 -18 8 -13 0 4 -6 3 -11 -3 -11 -5 0 -13 9 -16 20 -7 23 -23 26
-31 6 -3 -8 -12 -17 -20 -20 -11 -4 -11 0 2 19 9 14 14 26 10 26 -23 5 -32 4
-43 -4 -7 -5 -11 -13 -8 -16 2 -4 -2 -8 -8 -8 -7 0 -14 10 -15 21 -1 17 1 18
9 6 9 -12 10 -12 5 3 -3 10 -6 21 -6 23 0 3 -6 -1 -14 -8 -8 -7 -12 -16 -9
-20 8 -15 -5 -8 -18 9 -12 15 -12 16 1 8 8 -4 12 -5 8 0 -4 4 -2 15 5 24 7 9
2 7 -15 -4 -21 -16 -24 -23 -15 -34 8 -10 4 -9 -14 2 -14 10 -29 14 -34 10 -4
-5 -5 -3 -1 4 4 7 13 10 20 7 18 -7 30 12 15 22 -8 4 -9 3 -5 -4 4 -7 2 -12
-3 -12 -6 0 -11 5 -11 12 0 9 -3 9 -12 0 -17 -17 -25 -15 -31 9 -3 12 -10 18
-15 15 -6 -3 -13 -1 -15 4 -3 6 -4 5 -3 -2 2 -7 8 -12 13 -11 5 1 10 -4 10
-11 0 -7 -6 -13 -13 -13 -7 0 -11 4 -8 9 3 4 -2 8 -11 8 -10 0 -13 5 -9 12 5
7 3 8 -7 2 -20 -12 -40 -14 -33 -3 3 5 -2 9 -11 9 -9 0 -13 4 -10 10 3 6 -1 7
-10 4 -11 -5 -14 -2 -9 12 5 16 4 16 -5 4 -10 -13 -12 -13 -21 0 -6 9 -10 10
-10 3 0 -6 5 -15 10 -18 6 -3 10 -12 9 -18 0 -9 -2 -8 -6 1 -2 6 -9 10 -14 6
-5 -3 -9 -2 -8 3 1 4 1 15 0 23 -1 13 -2 13 -11 0 -5 -8 -10 -11 -10 -6 0 5
-6 3 -14 -3 -11 -9 -18 -7 -33 12 -18 23 -50 26 -36 4 4 -7 -1 -6 -10 2 -19
15 -22 22 -8 18 8 -2 11 3 11 19 0 4 -7 1 -15 -6 -8 -7 -15 -8 -15 -2 0 5 -11
10 -25 10 -14 0 -25 -6 -25 -12 0 -7 -3 -6 -8 2 -5 7 -18 14 -30 17 -12 2 -27
7 -34 11 -7 4 -8 3 -4 -4 4 -7 3 -12 -3 -12 -5 0 -11 4 -13 10 -1 5 -18 12
-35 14 -20 2 -30 -1 -26 -7 3 -5 0 -7 -8 -5 -8 3 -13 11 -11 17 1 6 -2 11 -8
11 -5 0 -10 -6 -10 -14 0 -8 -5 -18 -10 -21 -6 -4 -9 -2 -8 3 2 6 -1 10 -6 10
-14 0 -28 30 -21 45 4 6 1 5 -7 -3 -16 -18 -38 -24 -38 -10 0 6 -5 10 -11 10
-8 0 -8 -4 0 -14 8 -10 9 -16 1 -21 -5 -3 -13 1 -16 9 -3 9 -15 16 -26 16 -13
0 -17 -4 -12 -12 5 -8 1 -7 -10 2 -11 8 -14 16 -7 18 6 2 11 9 11 15 0 6 -14
-2 -31 -19 -25 -22 -29 -24 -21 -8 13 24 7 35 -15 27 -10 -4 -11 -8 -3 -13 8
-5 7 -9 -5 -13 -9 -4 -14 -3 -11 1 2 4 1 14 -5 22 -7 12 -9 10 -9 -7 0 -13 -5
-23 -10 -23 -6 0 -10 7 -8 16 3 19 -28 28 -39 12 -3 -6 -1 -8 5 -4 6 3 13 2
16 -3 4 -5 2 -12 -3 -15 -5 -4 -13 -1 -17 5 -4 8 -9 7 -15 -2 -7 -11 -9 -11
-9 -1 0 7 -5 10 -12 6 -7 -4 -8 -3 -4 4 4 7 3 12 -3 12 -5 0 -12 -6 -14 -12
-4 -9 -6 -10 -6 -1 -1 7 -11 10 -26 7 -18 -3 -25 0 -25 11 0 13 4 14 23 5 21
-11 21 -10 3 4 -21 17 -36 13 -36 -10 0 -8 -5 -14 -11 -14 -5 0 -8 4 -5 8 9
16 -28 9 -44 -8 -8 -9 -12 -11 -9 -5 9 15 7 45 -3 45 -5 0 -8 -6 -6 -14 2 -8
-1 -15 -7 -15 -5 -1 -10 3 -10 8 0 5 -4 13 -9 18 -5 4 -6 3 -2 -4 3 -6 2 -14
-4 -18 -5 -3 -10 1 -10 9 0 8 -4 17 -9 20 -5 4 -7 -4 -4 -16 3 -17 2 -19 -5
-9 -5 7 -14 11 -20 7 -6 -3 -15 1 -20 10 -6 11 -11 13 -16 5z m-121 -30 c3 -6
-3 -9 -14 -8 -11 0 -17 5 -15 9 7 11 22 10 29 -1z m-164 -14 c-7 -7 -7 -16 2
-26 8 -12 6 -11 -9 2 -11 9 -25 14 -29 10 -5 -5 -4 -1 3 8 6 9 19 16 27 16 11
0 12 -4 6 -10z m49 7 c0 -8 -19 -13 -24 -6 -3 5 1 9 9 9 8 0 15 -2 15 -3z
m690 -29 c0 -8 -4 -15 -10 -15 -5 0 -7 7 -4 15 4 8 8 15 10 15 2 0 4 -7 4 -15z
m-926 -7 c-3 -5 -9 -6 -14 -3 -4 3 -11 -1 -13 -7 -4 -8 -6 -7 -6 4 -1 11 6 16
18 15 11 0 17 -5 15 -9z m1176 -12 c0 -2 -8 -10 -17 -17 -16 -13 -17 -12 -4 4
13 16 21 21 21 13z m13 -21 c-3 -9 -8 -14 -10 -11 -3 3 -2 9 2 15 9 16 15 13
8 -4z m81 -4 c3 -5 -1 -11 -9 -14 -9 -4 -12 -1 -8 9 6 16 10 17 17 5z m74 -19
c5 -17 -13 -15 -27 2 -10 12 -9 14 5 12 10 -2 20 -8 22 -14z m512 -127 c0 -2
-7 -8 -15 -15 -12 -10 -15 -10 -15 2 0 8 7 15 15 15 8 0 15 -1 15 -2z m-2635
-14 c-9 -8 -36 -10 -30 -2 2 4 11 8 20 8 8 0 13 -3 10 -6z m2670 -10 c3 -5 2
-12 -3 -15 -5 -3 -9 1 -9 9 0 17 3 19 12 6z m50 -31 c3 -5 1 -10 -4 -10 -6 0
-11 5 -11 10 0 6 2 10 4 10 3 0 8 -4 11 -10z m82 -35 c0 -8 -4 -12 -9 -9 -5 3
-6 10 -3 15 9 13 12 11 12 -6z m25 -17 c-7 -7 -10 -5 -7 8 5 29 6 30 12 16 3
-8 1 -18 -5 -24z m-3385 -113 c0 -8 -4 -12 -9 -9 -5 3 -6 10 -3 15 9 13 12 11
12 -6z m3710 -51 c-3 -3 -12 -4 -19 -1 -8 3 -5 6 6 6 11 1 17 -2 13 -5z
m-3875 -48 c7 4 8 2 4 -4 -4 -6 -14 -8 -23 -5 -12 5 -14 3 -8 -7 5 -9 4 -11
-4 -6 -9 6 -9 11 1 23 8 10 14 11 16 4 2 -6 9 -8 14 -5z m-172 -106 c0 -5 -5
-10 -11 -10 -5 0 -7 5 -4 10 3 6 8 10 11 10 2 0 4 -4 4 -10z m4424 -90 c-6 -6
-10 -3 -10 10 0 13 4 16 10 10 7 -7 7 -13 0 -20z m-4524 3 c0 -3 -7 -2 -15 1
-9 3 -18 0 -21 -8 -3 -7 -12 -13 -20 -13 -12 0 -10 5 7 18 20 15 49 16 49 2z
m4615 -63 c3 -6 -1 -7 -9 -4 -18 7 -21 14 -7 14 6 0 13 -4 16 -10z m-4746 -13
c8 -10 7 -14 -4 -14 -8 0 -12 4 -9 8 2 4 -2 10 -8 12 -8 4 -9 6 -2 6 6 1 17
-5 23 -12z m4815 -26 c3 -5 -1 -11 -9 -14 -9 -4 -12 -1 -8 9 6 16 10 17 17 5z
m-4844 -37 c0 -8 -19 -13 -24 -6 -3 5 1 9 9 9 8 0 15 -2 15 -3z m5004 -105
c-3 -5 -11 -9 -17 -8 -9 0 -8 2 1 6 18 7 4 23 -16 17 -14 -5 -14 -4 -2 4 16
12 44 -4 34 -19z m-5252 -77 c-6 -2 -8 -11 -5 -20 4 -14 3 -14 -5 -3 -7 10 -6
20 1 33 8 12 13 14 16 6 2 -7 -1 -14 -7 -16z m5491 -137 c4 3 2 -1 -4 -8 -9
-9 -12 -9 -16 1 -3 6 -10 9 -16 5 -7 -3 -9 -3 -5 2 4 4 2 15 -4 24 -7 9 -1 6
13 -7 14 -12 29 -20 32 -17z m-5639 -3 c3 -5 -1 -9 -9 -9 -8 0 -12 4 -9 9 3 4
7 8 9 8 2 0 6 -4 9 -8z m5710 -88 c3 -8 2 -12 -4 -9 -6 3 -10 10 -10 16 0 14
7 11 14 -7z m-6002 -288 c7 4 8 2 4 -4 -4 -6 -14 -8 -24 -5 -15 6 -16 5 -2
-13 14 -18 14 -18 -3 -5 -14 11 -15 17 -5 28 8 10 14 11 16 4 2 -6 9 -8 14 -5z
m6308 -106 c0 -5 -5 -10 -11 -10 -5 0 -7 5 -4 10 3 6 8 10 11 10 2 0 4 -4 4
-10z m-6414 -42 c5 -7 3 -8 -6 -3 -10 6 -12 3 -7 -14 4 -18 3 -20 -9 -10 -11
9 -12 15 -3 25 14 17 16 17 25 2z m6533 -158 c11 -24 11 -24 -3 -6 -9 11 -16
24 -16 30 0 12 5 7 19 -24z m81 -154 c0 -2 -7 -7 -16 -10 -8 -3 -12 -2 -9 4 6
10 25 14 25 6z m162 -343 c-10 -4 -9 -8 5 -19 16 -12 16 -13 2 -14 -9 0 -19 6
-22 14 -6 16 1 26 17 25 6 0 5 -3 -2 -6z m43 -183 c3 -6 -1 -7 -9 -4 -18 7
-21 14 -7 14 6 0 13 -4 16 -10z m50 -109 c3 -5 2 -12 -3 -15 -5 -3 -9 1 -9 9
0 17 3 19 12 6z m26 -53 c1 -7 1 -16 0 -20 0 -5 4 -8 10 -8 8 0 8 -5 -1 -15
-7 -8 -18 -15 -24 -15 -8 0 -8 2 0 8 13 8 15 42 2 42 -4 0 -8 5 -8 10 0 15 20
12 21 -2z m14 -68 c-3 -5 -1 -19 5 -30 8 -15 8 -18 -3 -14 -8 3 -13 15 -12 27
3 26 3 27 11 27 3 0 2 -4 -1 -10z m31 -93 c4 -4 0 -7 -9 -7 -9 0 -18 4 -21 9
-7 10 20 9 30 -2z m1 -23 c-3 -3 -12 -4 -19 -1 -8 3 -5 6 6 6 11 1 17 -2 13
-5z m29 -113 c1 -6 0 -7 -3 -1 -2 5 -9 8 -13 5 -5 -3 -11 -1 -14 4 -4 5 2 8
11 7 9 -2 18 -8 19 -15z m-3 -56 c-3 -9 -8 -14 -10 -11 -3 3 -2 9 2 15 9 16
15 13 8 -4z m-7513 -119 c0 -2 -7 -9 -15 -16 -13 -11 -14 -10 -9 4 5 14 24 23
24 12z m-10 -41 c-10 -12 -10 -15 0 -15 8 0 11 -3 7 -6 -3 -3 -11 -3 -17 1 -8
5 -8 11 1 21 6 8 14 14 16 14 3 0 0 -7 -7 -15z m7548 -86 c-3 -8 -7 -3 -11 10
-4 17 -3 21 5 13 5 -5 8 -16 6 -23z m25 -176 c-3 -7 -6 -13 -8 -13 -2 0 -5 6
-8 13 -3 8 1 14 8 14 7 0 11 -6 8 -14z m-7583 -185 c0 -4 -4 -8 -9 -8 -6 0
-12 4 -15 8 -3 5 1 9 9 9 8 0 15 -4 15 -9z m-23 -58 c0 -16 -7 -32 -15 -35
-11 -4 -12 -2 -4 8 7 8 7 18 2 27 -9 15 -5 30 9 30 4 0 8 -13 8 -30z m7629
-97 c-10 -11 -37 -12 -30 -2 3 5 12 9 21 9 9 0 13 -3 9 -7z m-6 -65 c0 -19
-16 -5 -17 14 -2 18 0 20 7 8 5 -8 10 -18 10 -22z m-7623 -53 c0 -8 -4 -12 -9
-9 -5 3 -6 10 -3 15 9 13 12 11 12 -6z m60 -450 c0 -8 -4 -12 -9 -9 -5 3 -6
10 -3 15 9 13 12 11 12 -6z m22 -119 c0 -7 -2 -6 -6 2 -2 6 -8 10 -12 8 -4 -3
-8 1 -8 9 0 11 4 12 14 4 7 -6 13 -17 12 -23z m21 -141 c-5 -7 -7 -15 -3 -18
3 -4 1 -7 -5 -7 -6 0 -10 8 -9 18 0 10 7 19 14 19 9 0 10 -4 3 -12z m20 -30
c0 -2 -10 -9 -22 -15 -22 -11 -22 -10 -4 4 21 17 26 19 26 11z m7390 -39 c0
-3 -4 -8 -10 -11 -5 -3 -10 -1 -10 4 0 6 5 11 10 11 6 0 10 -2 10 -4z m-7380
-86 c0 -5 -2 -10 -4 -10 -3 0 -8 5 -11 10 -3 6 -1 10 4 10 6 0 11 -4 11 -10z
m7308 -75 c-3 -3 -9 2 -12 12 -6 14 -5 15 5 6 7 -7 10 -15 7 -18z m12 -50 c0
-12 -19 -12 -23 0 -4 9 -1 12 9 8 7 -3 14 -7 14 -8z m-70 -179 c-7 -7 -15 -5
-22 3 -11 10 -10 11 5 5 14 -5 16 -2 11 12 -5 16 -4 16 5 4 6 -9 7 -18 1 -24z
m-6 -25 c3 -5 -1 -14 -8 -20 -12 -10 -14 -9 -11 6 2 10 4 19 4 21 2 5 10 2 15
-7z m-7074 -151 c0 -5 -2 -10 -4 -10 -3 0 -8 5 -11 10 -3 6 -1 10 4 10 6 0 11
-4 11 -10z m6920 -160 c0 -5 -5 -10 -11 -10 -5 0 -7 5 -4 10 3 6 8 10 11 10 2
0 4 -4 4 -10z m-50 -104 c0 -2 -7 -7 -16 -10 -8 -3 -12 -2 -9 4 6 10 25 14 25
6z m-32 -85 c-7 -11 -17 -17 -22 -14 -6 4 -5 8 2 11 7 2 10 8 6 13 -3 5 2 9
10 9 13 0 14 -3 4 -19z m-41 -36 c-4 -8 -2 -17 3 -20 16 -10 12 -23 -11 -35
-29 -16 -36 -4 -13 21 10 12 18 23 17 25 -5 8 -3 24 3 24 3 0 4 -7 1 -15z
m-27 -78 c0 -2 -9 -12 -20 -22 -24 -21 -27 -14 -4 9 15 15 24 20 24 13z
m-6486 -63 c5 -14 4 -15 -9 -4 -17 14 -19 20 -6 20 5 0 12 -7 15 -16z m31 -44
c-3 -6 4 -14 17 -19 15 -7 17 -10 7 -10 -19 -1 -42 23 -32 32 10 10 15 8 8 -3z
m6375 -5 c-7 -8 -18 -15 -24 -15 -6 0 -2 7 8 15 25 19 32 19 16 0z m-6317 -82
c-6 -16 -5 -17 13 -3 15 11 16 11 7 0 -18 -19 -16 -28 5 -33 14 -4 15 -5 1 -6
-9 0 -24 10 -33 23 -15 23 -14 26 11 35 1 1 -1 -7 -4 -16z m6258 -6 c-6 -8 -8
-17 -4 -21 4 -4 0 -4 -9 -1 -14 5 -15 10 -5 21 16 17 33 18 18 1z m-6151 -137
c0 -5 -2 -10 -4 -10 -3 0 -8 5 -11 10 -3 6 -1 10 4 10 6 0 11 -4 11 -10z
m6050 0 c-20 -13 -33 -13 -25 0 3 6 14 10 23 10 15 0 15 -2 2 -10z m-72 -45
c-3 -3 -9 2 -12 12 -6 14 -5 15 5 6 7 -7 10 -15 7 -18z m-5838 -126 c0 -5 5
-7 12 -3 7 4 8 3 4 -5 -6 -9 -11 -9 -22 0 -17 14 -18 19 -4 19 6 0 10 -5 10
-11z m135 -138 c-3 -6 -11 -11 -16 -11 -5 0 -4 6 3 14 14 16 24 13 13 -3z
m5395 -92 c0 6 5 11 12 11 6 0 4 -7 -5 -18 -10 -10 -14 -22 -10 -26 4 -4 -1
-4 -12 0 -12 5 -14 9 -7 12 10 3 10 7 0 20 -12 15 -11 16 5 3 11 -9 17 -10 17
-2z m-5256 -51 c-4 -15 -3 -18 6 -13 9 5 11 4 6 -4 -6 -9 -11 -9 -22 0 -11 9
-12 14 -3 19 6 5 8 13 4 20 -5 9 -4 11 4 6 7 -5 9 -16 5 -28z m5171 -37 c-3
-6 -11 -11 -16 -11 -5 0 -4 6 3 14 14 16 24 13 13 -3z m-5027 -69 c15 12 16
11 3 -4 -14 -19 -32 -15 -30 5 0 8 2 8 6 -1 4 -10 8 -10 21 0z m4794 -124
c-21 -21 -67 -34 -56 -16 4 5 12 7 19 4 7 -2 21 6 31 19 10 13 20 22 23 19 3
-2 -5 -14 -17 -26z m-88 -59 c-3 -5 -10 -7 -15 -3 -5 3 -7 10 -3 15 3 5 10 7
15 3 5 -3 7 -10 3 -15z m-51 -14 c-3 -9 -8 -14 -10 -11 -3 3 -2 9 2 15 9 16
15 13 8 -4z m-4321 -49 c7 4 8 2 4 -5 -4 -6 0 -14 8 -17 9 -3 16 -11 16 -17 0
-6 -10 -1 -23 11 -13 12 -27 19 -31 15 -4 -4 -4 1 0 12 5 11 9 14 12 7 2 -7 9
-9 14 -6z m338 -216 c0 -5 -2 -10 -4 -10 -3 0 -8 5 -11 10 -3 6 -1 10 4 10 6
0 11 -4 11 -10z m35 -8 c-3 -3 -11 0 -18 7 -9 10 -8 11 6 5 10 -3 15 -9 12
-12z m3529 -4 c-3 -4 -11 -5 -19 -1 -21 7 -19 12 4 10 11 0 18 -5 15 -9z m-44
-12 c0 -2 -8 -10 -17 -17 -16 -13 -17 -12 -4 4 13 16 21 21 21 13z m-86 -35
c3 -4 -3 -16 -13 -25 -17 -16 -19 -16 -24 4 -4 17 -3 19 8 10 8 -7 15 -7 19
-1 3 5 0 12 -6 14 -9 4 -10 6 -1 6 6 1 14 -3 17 -8z m-3184 -41 c0 -5 -2 -10
-4 -10 -3 0 -8 5 -11 10 -3 6 -1 10 4 10 6 0 11 -4 11 -10z m2970 -55 c0 -2
-6 -8 -13 -14 -10 -8 -14 -7 -14 2 0 8 6 14 14 14 7 0 13 -1 13 -2z m-2550
-115 c0 -5 -4 -10 -10 -10 -5 0 -10 5 -10 10 0 6 5 10 10 10 6 0 10 -4 10 -10z
m2207 4 c-3 -3 -12 -4 -19 -1 -8 3 -5 6 6 6 11 1 17 -2 13 -5z m-167 -53 c0
-5 -7 -12 -16 -15 -14 -5 -15 -4 -4 9 14 17 20 19 20 6z m-386 -81 c-6 -6 -10
-3 -10 10 0 13 4 16 10 10 7 -7 7 -13 0 -20z m-1077 7 c0 -8 -6 -14 -14 -14
-17 0 -17 14 0 20 6 3 12 6 13 6 0 1 1 -5 1 -12z m158 -7 c3 -5 1 -10 -4 -10
-6 0 -11 5 -11 10 0 6 2 10 4 10 3 0 8 -4 11 -10z m505 -24 c0 -2 -7 -7 -16
-10 -8 -3 -12 -2 -9 4 6 10 25 14 25 6z"/>
<path d="M7209 1973 c-13 -16 -12 -17 4 -4 16 13 21 21 13 21 -2 0 -10 -8 -17
-17z"/>
<path d="M4190 7719 c0 -5 5 -7 10 -4 6 3 10 8 10 11 0 2 -4 4 -10 4 -5 0 -10
-5 -10 -11z"/>
<path d="M3530 7700 c-6 -11 -8 -20 -6 -20 3 0 10 9 16 20 6 11 8 20 6 20 -3
0 -10 -9 -16 -20z"/>
<path d="M4215 7709 c-4 -6 -5 -12 -2 -15 2 -3 7 2 10 11 7 17 1 20 -8 4z"/>
<path d="M4415 7700 c-3 -5 -1 -10 4 -10 6 0 11 5 11 10 0 6 -2 10 -4 10 -3 0
-8 -4 -11 -10z"/>
<path d="M3121 7633 c-7 -8 -11 -16 -8 -19 2 -2 10 2 17 11 17 20 9 27 -9 8z"/>
<path d="M3075 7630 c-3 -6 1 -7 9 -4 18 7 21 14 7 14 -6 0 -13 -4 -16 -10z"/>
<path d="M3001 7614 c0 -11 3 -14 6 -6 3 7 2 16 -1 19 -3 4 -6 -2 -5 -13z"/>
<path d="M4866 7602 c-3 -6 0 -15 8 -21 10 -9 17 -7 27 6 7 10 9 15 5 11 -5
-4 -15 -3 -22 3 -7 6 -14 6 -18 1z"/>
<path d="M5010 7566 c0 -2 7 -9 15 -16 13 -11 14 -10 9 4 -5 14 -24 23 -24 12z"/>
<path d="M2635 7510 c3 -5 8 -10 11 -10 2 0 4 5 4 10 0 6 -5 10 -11 10 -5 0
-7 -4 -4 -10z"/>
<path d="M2495 7460 c-3 -5 -1 -10 4 -10 6 0 11 5 11 10 0 6 -2 10 -4 10 -3 0
-8 -4 -11 -10z"/>
<path d="M2530 7459 c0 -5 5 -7 10 -4 6 3 10 8 10 11 0 2 -4 4 -10 4 -5 0 -10
-5 -10 -11z"/>
<path d="M5430 7416 c7 -7 13 -7 20 0 6 6 3 10 -10 10 -13 0 -16 -4 -10 -10z"/>
<path d="M2302 7386 c4 -5 0 -15 -10 -23 -15 -13 -15 -13 4 -4 12 6 24 8 26 5
3 -2 11 2 18 11 8 10 9 15 1 15 -6 0 -11 -5 -11 -11 0 -8 -6 -7 -17 2 -10 7
-15 9 -11 5z"/>
<path d="M2196 7338 c3 -5 10 -6 15 -3 13 9 11 12 -6 12 -8 0 -12 -4 -9 -9z"/>
<path d="M5625 7331 c11 -12 29 -27 40 -32 20 -10 20 -10 0 6 -11 9 -18 22
-17 28 2 7 0 9 -4 5 -4 -4 -14 -2 -23 4 -9 7 -7 2 4 -11z"/>
<path d="M5895 7180 c3 -5 8 -10 11 -10 2 0 4 5 4 10 0 6 -5 10 -11 10 -5 0
-7 -4 -4 -10z"/>
<path d="M5980 7141 c0 -10 19 -25 25 -20 1 2 -3 10 -11 17 -8 7 -14 8 -14 3z"/>
<path d="M1656 6998 c3 -4 11 -5 19 -1 21 7 19 12 -4 10 -11 0 -18 -5 -15 -9z"/>
<path d="M1455 6860 c-3 -5 -1 -10 4 -10 6 0 11 5 11 10 0 6 -2 10 -4 10 -3 0
-8 -4 -11 -10z"/>
<path d="M1414 6815 c8 -7 12 -16 8 -20 -4 -5 -2 -5 5 -1 16 9 6 33 -14 33
-14 0 -14 -1 1 -12z"/>
<path d="M6395 6820 c3 -5 8 -10 11 -10 2 0 4 5 4 10 0 6 -5 10 -11 10 -5 0
-7 -4 -4 -10z"/>
<path d="M6565 6670 c18 -20 35 -18 35 3 0 7 -4 6 -10 -3 -9 -13 -14 -7 -11
13 0 4 -6 7 -16 7 -14 0 -14 -2 2 -20z"/>
<path d="M1206 6614 c-5 -14 -4 -15 9 -4 17 14 19 20 6 20 -5 0 -12 -7 -15
-16z"/>
<path d="M6840 6390 c-9 -6 -10 -10 -3 -10 6 0 15 5 18 10 8 12 4 12 -15 0z"/>
<path d="M990 6379 c0 -5 5 -7 10 -4 6 3 10 8 10 11 0 2 -4 4 -10 4 -5 0 -10
-5 -10 -11z"/>
<path d="M6887 6341 c-4 -17 -3 -21 5 -13 5 5 8 16 6 23 -3 8 -7 3 -11 -10z"/>
<path d="M910 6321 c0 -6 4 -13 10 -16 6 -3 7 1 4 9 -7 18 -14 21 -14 7z"/>
<path d="M875 6269 c-4 -6 -5 -12 -2 -15 2 -3 7 2 10 11 7 17 1 20 -8 4z"/>
<path d="M6990 6259 c0 -5 5 -7 10 -4 6 3 10 8 10 11 0 2 -4 4 -10 4 -5 0 -10
-5 -10 -11z"/>
<path d="M7070 6086 c0 -2 8 -10 18 -17 15 -13 16 -12 3 4 -13 16 -21 21 -21
13z"/>
<path d="M647 5923 c3 -7 0 -13 -6 -13 -6 0 -11 -4 -11 -10 0 -17 14 -11 31
13 16 21 16 23 -1 23 -10 0 -16 -6 -13 -13z"/>
<path d="M7235 5880 c3 -5 8 -10 11 -10 2 0 4 5 4 10 0 6 -5 10 -11 10 -5 0
-7 -4 -4 -10z"/>
<path d="M474 5585 c-5 -13 -9 -13 -23 -3 -14 12 -15 11 -2 -4 17 -22 18 -22
31 2 6 11 8 20 5 20 -3 0 -8 -7 -11 -15z"/>
<path d="M431 5545 c-1 -6 5 -17 12 -24 10 -11 9 -13 -5 -8 -12 4 -15 2 -11
-9 7 -20 26 -3 30 28 2 16 0 19 -6 9 -7 -11 -9 -11 -14 0 -3 8 -6 9 -6 4z"/>
<path d="M7395 5540 c3 -5 11 -10 16 -10 6 0 7 5 4 10 -3 6 -11 10 -16 10 -6
0 -7 -4 -4 -10z"/>
<path d="M7441 5454 c0 -11 3 -14 6 -6 3 7 2 16 -1 19 -3 4 -6 -2 -5 -13z"/>
<path d="M319 5252 c11 -8 11 -10 0 -14 -10 -3 -9 -6 3 -10 11 -5 15 -2 14 10
-2 9 -9 18 -17 20 -12 3 -12 2 0 -6z"/>
<path d="M294 5209 c-3 -6 -2 -15 4 -21 6 -6 12 -6 17 3 6 8 4 10 -5 4 -10 -6
-12 -4 -7 8 7 19 2 23 -9 6z"/>
<path d="M7566 5112 c-3 -5 1 -15 8 -21 11 -10 14 -9 12 3 -3 21 -13 29 -20
18z"/>
<path d="M193 4895 c0 -8 4 -12 9 -9 4 3 8 9 8 15 0 5 -4 9 -8 9 -5 0 -9 -7
-9 -15z"/>
<path d="M7716 4502 c-3 -5 1 -9 9 -9 8 0 12 4 9 9 -3 4 -7 8 -9 8 -2 0 -6 -4
-9 -8z"/>
<path d="M7717 4469 c7 -7 15 -10 18 -7 3 3 -2 9 -12 12 -14 6 -15 5 -6 -5z"/>
<path d="M90 4180 c0 -5 5 -10 11 -10 5 0 7 5 4 10 -3 6 -8 10 -11 10 -2 0 -4
-4 -4 -10z"/>
<path d="M7745 4180 c-3 -5 -1 -10 4 -10 6 0 11 5 11 10 0 6 -2 10 -4 10 -3 0
-8 -4 -11 -10z"/>
<path d="M7746 4148 c3 -5 10 -6 15 -3 13 9 11 12 -6 12 -8 0 -12 -4 -9 -9z"/>
<path d="M76 4067 c3 -10 9 -15 12 -12 3 3 0 11 -7 18 -10 9 -11 8 -5 -6z"/>
<path d="M7755 4060 c3 -5 8 -10 11 -10 2 0 4 5 4 10 0 6 -5 10 -11 10 -5 0
-7 -4 -4 -10z"/>
<path d="M7760 3980 c-9 -6 -10 -10 -3 -10 6 0 15 5 18 10 8 12 4 12 -15 0z"/>
<path d="M7747 3953 c-10 -10 -8 -23 4 -23 5 0 8 4 5 9 -4 5 0 12 6 14 7 3 8
6 2 6 -6 1 -14 -2 -17 -6z"/>
<path d="M90 3840 c0 -6 7 -10 15 -10 8 0 15 2 15 4 0 2 -7 6 -15 10 -8 3 -15
1 -15 -4z"/>
<path d="M95 3809 c-10 -15 3 -25 16 -12 7 7 7 13 1 17 -6 3 -14 1 -17 -5z"/>
<path d="M7749 3708 c-6 -22 -5 -39 3 -45 7 -4 8 -1 3 7 -6 10 -3 12 11 7 18
-7 18 -6 1 7 -14 10 -15 15 -5 19 10 4 10 6 1 6 -7 1 -13 0 -14 -1z"/>
<path d="M90 3679 c0 -5 5 -7 10 -4 6 3 10 8 10 11 0 2 -4 4 -10 4 -5 0 -10
-5 -10 -11z"/>
<path d="M7740 3539 c0 -5 5 -7 10 -4 6 3 10 8 10 11 0 2 -4 4 -10 4 -5 0 -10
-5 -10 -11z"/>
<path d="M7719 3373 c-12 -16 -12 -17 2 -6 9 7 20 9 24 5 5 -4 5 -1 1 6 -9 16
-11 15 -27 -5z"/>
<path d="M159 3268 c0 -2 -2 -11 -4 -21 -3 -15 -1 -16 11 -6 7 6 11 15 8 20
-5 9 -13 12 -15 7z"/>
<path d="M7697 3249 c7 -7 15 -10 18 -7 3 3 -2 9 -12 12 -14 6 -15 5 -6 -5z"/>
<path d="M7670 3060 c0 -5 5 -10 11 -10 5 0 7 5 4 10 -3 6 -8 10 -11 10 -2 0
-4 -4 -4 -10z"/>
<path d="M7646 3021 c-3 -5 2 -15 12 -22 15 -13 16 -12 4 3 -10 13 -10 17 0
21 9 4 9 6 1 6 -6 1 -14 -3 -17 -8z"/>
<path d="M7620 2920 c-16 -10 -23 -50 -9 -50 5 0 10 5 10 10 1 6 2 16 3 23 1
6 8 11 15 9 7 -1 10 2 6 8 -7 12 -6 12 -25 0z"/>
<path d="M253 2808 c-2 -18 0 -20 7 -8 12 18 13 30 2 30 -4 0 -9 -10 -9 -22z"/>
<path d="M7444 2428 c-12 -19 -12 -47 0 -45 6 1 10 -4 8 -11 -1 -8 2 -11 8 -7
7 5 8 11 1 19 -6 7 -8 22 -4 34 6 24 -1 29 -13 10z"/>
<path d="M521 2147 c-13 -21 -12 -21 5 -5 10 10 16 20 13 22 -3 3 -11 -5 -18
-17z"/>
<path d="M570 2066 c0 -8 9 -21 21 -29 14 -10 16 -16 8 -19 -9 -3 -8 -6 3 -10
22 -9 17 18 -7 35 -10 8 -15 19 -11 25 4 7 2 12 -3 12 -6 0 -11 -6 -11 -14z"/>
<path d="M818 1673 c6 -3 10 -9 6 -14 -8 -14 2 -11 14 4 8 10 6 13 -11 14 -12
0 -16 -1 -9 -4z"/>
<path d="M865 1630 c-4 -6 -11 -7 -17 -4 -7 4 -8 2 -4 -5 6 -9 11 -9 22 0 14
11 18 19 10 19 -3 0 -8 -5 -11 -10z"/>
<path d="M970 1479 c0 -5 5 -7 10 -4 6 3 10 8 10 11 0 2 -4 4 -10 4 -5 0 -10
-5 -10 -11z"/>
<path d="M6866 1478 c3 -4 11 -5 19 -1 21 7 19 12 -4 10 -11 0 -18 -5 -15 -9z"/>
<path d="M1064 1373 c2 -10 6 -17 10 -16 15 3 16 11 2 22 -12 10 -14 9 -12 -6z"/>
<path d="M1113 1343 c4 -3 -1 -12 -11 -20 -15 -13 -15 -13 6 -3 12 6 22 7 22
1 0 -5 8 -12 17 -15 13 -5 11 0 -6 18 -14 15 -27 26 -29 26 -3 0 -2 -3 1 -7z"/>
<path d="M6647 1262 c1 -3 -4 -13 -12 -22 -13 -14 -13 -17 0 -17 8 0 12 4 9 8
-2 4 2 9 8 12 9 3 10 7 2 15 -6 5 -9 7 -7 4z"/>
<path d="M1254 1181 c0 -12 5 -17 15 -13 10 4 12 1 6 -8 -6 -9 -4 -11 4 -6 9
6 8 13 -5 27 -21 23 -20 23 -20 0z"/>
<path d="M6525 1140 c-3 -5 -1 -10 4 -10 6 0 11 5 11 10 0 6 -2 10 -4 10 -3 0
-8 -4 -11 -10z"/>
<path d="M1405 1051 c-3 -5 -2 -12 3 -15 5 -3 9 1 9 9 0 17 -3 19 -12 6z"/>
<path d="M1482 986 c7 -8 18 -13 23 -13 6 1 9 -4 7 -11 -1 -8 2 -11 8 -7 5 3
10 1 10 -4 0 -6 -5 -11 -12 -11 -6 0 -8 -3 -5 -6 4 -4 13 -2 20 4 8 7 17 9 20
5 4 -3 7 -4 7 -1 0 7 -74 58 -83 58 -4 0 -2 -6 5 -14z"/>
<path d="M1550 920 c0 -5 5 -10 11 -10 5 0 7 5 4 10 -3 6 -8 10 -11 10 -2 0
-4 -4 -4 -10z"/>
<path d="M5950 695 c0 -8 2 -15 4 -15 2 0 6 7 10 15 3 8 1 15 -4 15 -6 0 -10
-7 -10 -15z"/>
<path d="M5894 682 c-19 -17 -30 -57 -12 -46 5 3 6 10 3 15 -4 5 0 12 9 15 8
3 17 12 20 20 7 18 6 17 -20 -4z"/>
<path d="M2175 540 c-3 -5 -1 -10 4 -10 6 0 11 5 11 10 0 6 -2 10 -4 10 -3 0
-8 -4 -11 -10z"/>
<path d="M2271 494 c0 -11 3 -14 6 -6 3 7 2 16 -1 19 -3 4 -6 -2 -5 -13z"/>
<path d="M2476 402 c-3 -5 1 -9 9 -9 8 0 12 4 9 9 -3 4 -7 8 -9 8 -2 0 -6 -4
-9 -8z"/>
<path d="M5290 378 c0 -4 4 -8 9 -8 6 0 12 4 15 8 3 5 -1 9 -9 9 -8 0 -15 -4
-15 -9z"/>
<path d="M2609 343 c-13 -16 -12 -17 4 -4 16 13 21 21 13 21 -2 0 -10 -8 -17
-17z"/>
<path d="M2712 312 c8 -9 14 -10 16 -3 2 6 9 8 15 4 7 -3 9 -2 4 2 -4 5 -16 9
-27 10 -16 1 -17 -1 -8 -13z"/>
<path d="M5190 319 c0 -5 5 -7 10 -4 6 3 10 8 10 11 0 2 -4 4 -10 4 -5 0 -10
-5 -10 -11z"/>
<path d="M2755 301 c-3 -5 -2 -12 3 -15 5 -3 9 1 9 9 0 17 -3 19 -12 6z"/>
<path d="M5059 308 c-5 -18 -6 -38 -1 -34 7 8 12 36 6 36 -2 0 -4 -1 -5 -2z"/>
<path d="M4973 275 c-3 -9 -3 -19 1 -22 3 -4 6 1 6 11 0 10 5 14 12 10 7 -4 8
-3 4 4 -10 16 -15 15 -23 -3z"/>
<path d="M4931 264 c0 -11 3 -14 6 -6 3 7 2 16 -1 19 -3 4 -6 -2 -5 -13z"/>
<path d="M3866 153 c-11 -11 -6 -23 9 -23 8 0 15 4 15 9 0 13 -16 22 -24 14z"/>
<path d="M3633 135 c0 -8 4 -12 9 -9 4 3 8 9 8 15 0 5 -4 9 -8 9 -5 0 -9 -7
-9 -15z"/>
<path d="M3666 142 c-3 -5 1 -15 8 -21 11 -10 14 -9 12 3 -3 21 -13 29 -20 18z"/>
<path d="M3700 141 c0 -6 4 -13 10 -16 6 -3 7 1 4 9 -7 18 -14 21 -14 7z"/>
<path d="M4226 142 c-3 -5 1 -9 9 -9 8 0 12 4 9 9 -3 4 -7 8 -9 8 -2 0 -6 -4
-9 -8z"/>
<path d="M3906 132 c-3 -5 1 -9 9 -9 8 0 15 4 15 9 0 4 -4 8 -9 8 -6 0 -12 -4
-15 -8z"/>
<path d="M3956 123 c-6 -14 -5 -15 5 -6 7 7 10 15 7 18 -3 3 -9 -2 -12 -12z"/>
</g>
</svg>
